SplineFontDB: 3.2
FontName: wwise-regular
FullName: wwise Regular
FamilyName: wwise
Weight: Regular
Copyright: Copyright (c) 2022, William Wise
UComments: "Glyphs are created in Figma (https://figma.com/). This font was generated by FontForge (https://fontforge.org)."
Version: 001.000
DefaultBaseFilename: 400-regular
ItalicAngle: 0
UnderlinePosition: -204
UnderlineWidth: 102
Ascent: 1638
Descent: 410
InvalidEm: 0
LayerCount: 2
Layer: 0 0 "Back" 1
Layer: 1 0 "Fore" 0
XUID: [1021 86 -766541239 4208]
StyleMap: 0x0040
FSType: 0
OS2Version: 0
OS2_WeightWidthSlopeOnly: 0
OS2_UseTypoMetrics: 1
CreationTime: 1671043445
ModificationTime: 1671145224
PfmFamily: 33
TTFWeight: 400
TTFWidth: 5
LineGap: 184
VLineGap: 0
OS2TypoAscent: 0
OS2TypoAOffset: 1
OS2TypoDescent: 0
OS2TypoDOffset: 1
OS2TypoLinegap: 184
OS2WinAscent: 0
OS2WinAOffset: 1
OS2WinDescent: 0
OS2WinDOffset: 1
HheadAscent: 0
HheadAOffset: 1
HheadDescent: 0
HheadDOffset: 1
OS2Vendor: 'PfEd'
Lookup: 258 0 0 "'kern' Horizontal Kerning in Latin lookup 0" { "r-" [300,0,2] "-.,_" [300,0,2] "-'+ACIA" [300,0,2] "'+ACIA--" [300,0,2] "-VW" [300,0,2] "VW-" [300,0,2] "-vwy" [300,0,2] "vwy-" [300,0,2] "-x" [300,0,2] "kx-" [300,0,2] "ft-" [300,0,2] "TY-" [300,0,2] } ['kern' ('DFLT' <'dflt' > 'latn' <'dflt' > ) ]
MarkAttachClasses: 1
DEI: 91125
KernClass2: 2 3 "r-"
 1 r
 1 a
 11 c d e g o q
 0 {} 0 {} 0 {} 0 {} -128 {} -125 {}
KernClass2: 10 4 "-.,_"
 3 b o
 1 c
 1 e
 1 f
 1 p
 1 r
 1 s
 3 v w
 1 y
 5 comma
 6 period
 10 underscore
 0 {} 0 {} 0 {} 0 {} 0 {} -190 {} -92 {} -322 {} 0 {} -101 {} 0 {} -186 {} 0 {} -128 {} -25 {} -302 {} 0 {} -310 {} -209 {} 0 {} 0 {} -246 {} -92 {} -587 {} 0 {} -400 {} -350 {} -300 {} 0 {} -103 {} 0 {} -236 {} 0 {} -369 {} -276 {} -300 {} 0 {} -391 {} -282 {} -351 {}
KernClass2: 4 3 "-'+ACIA"
 33 a c e g m n o p q r s u v w x y z
 1 b
 1 h
 26 quotedblright quotedblleft
 32 quotesingle quoteleft quoteright
 0 {} 0 {} 0 {} 0 {} -300 {} -100 {} 0 {} -300 {} -100 {} 0 {} -300 {} -100 {}

StartChar: A
Encoding: 65 65 0
Width: 1463
VWidth: 2457
Flags: HW
HStem: -0.480469 21G<59 239.032 1230.65 1410.68> 491.04 147.456<486.622 983.06> 1454.08 20G<640.823 828.855>
LayerCount: 2
Fore
SplineSet
648.823242188 1474.08007812 m 1
 820.85546875 1474.08007812 l 1
 1410.68066406 -0.48046875 l 1
 1238.6484375 -0.48046875 l 1
 1042.04003906 491.040039062 l 1
 427.640625 491.040039062 l 1
 231.032226562 -0.48046875 l 1
 59 -0.48046875 l 1
 648.823242188 1474.08007812 l 1
734.83984375 1259.04003906 m 1
 486.622070312 638.49609375 l 1
 983.057617188 638.49609375 l 1
 734.83984375 1259.04003906 l 1
EndSplineSet
EndChar

StartChar: B
Encoding: 66 66 1
Width: 1231
VWidth: 2457
Flags: HW
HStem: -0.480469 147.457<295.033 865.505> 663.071 147.457<295.033 804.309> 1326.62 147.457<295.033 793.488>
VStem: 123 172.033<146.977 663.071 810.528 1326.62> 909.433 172.031<911.37 1216.57> 983.16 172.032<257.202 558.609>
LayerCount: 2
Fore
SplineSet
123 1474.08007812 m 1xf4
 295.033203125 1474.08007812 l 1
 295.033203125 1474.08007812 417.912109375 1474.08007812 663.671875 1474.08007812 c 0
 909.432617188 1474.08007812 1081.46386719 1302.04785156 1081.46386719 1056.28808594 c 0xf8
 1081.46386719 810.528320312 909.432617188 736.799804688 811.12890625 736.799804688 c 1
 835.704101562 736.799804688 l 2
 934.0078125 736.799804688 1155.19238281 687.6484375 1155.19238281 417.311523438 c 0
 1155.19238281 146.9765625 958.584960938 -0.48046875 712.82421875 -0.48046875 c 2
 295.033203125 -0.48046875 l 1
 123 -0.48046875 l 1
 123 1474.08007812 l 1xf4
295.033203125 810.528320312 m 1
 295.033203125 810.528320312 589.944335938 810.528320312 663.671875 810.528320312 c 0
 737.400390625 810.528320312 909.432617188 859.680664062 909.432617188 1056.28808594 c 0
 909.432617188 1252.89648438 761.9765625 1326.62304688 663.671875 1326.62304688 c 0
 565.368164062 1326.62304688 295.033203125 1326.62304688 295.033203125 1326.62304688 c 1
 295.033203125 810.528320312 l 1
663.671875 663.071289062 m 0
 565.368164062 663.071289062 295.033203125 663.071289062 295.033203125 663.071289062 c 1
 295.033203125 146.9765625 l 1
 295.033203125 146.9765625 614.51953125 146.9765625 712.82421875 146.9765625 c 0
 811.12890625 146.9765625 983.16015625 196.12890625 983.16015625 417.311523438 c 0xf4
 983.16015625 638.49609375 761.9765625 663.071289062 663.671875 663.071289062 c 0
EndSplineSet
EndChar

StartChar: C
Encoding: 67 67 2
Width: 1209
VWidth: 2457
Flags: HW
HStem: -25.0557 147.456<537.458 899.228> 1351.2 147.456<537.458 899.228>
VStem: 70 172.032<496.792 976.809>
LayerCount: 2
Fore
SplineSet
70 736.799804688 m 0
 70 1056.28808594 266.607421875 1498.65625 708.9765625 1498.65625 c 0
 901.745117188 1498.65625 1047.84375 1394.74316406 1151.34375 1278.78417969 c 2
 1077.61523438 1154.59179688 l 1
 979.311523438 1277.47167969 869.368164062 1351.20019531 708.9765625 1351.20019531 c 0
 364.911132812 1351.20019531 242.032226562 933.408203125 242.032226562 736.799804688 c 0
 242.032226562 540.192382812 364.911132812 122.400390625 708.9765625 122.400390625 c 0
 869.368164062 122.400390625 979.311523438 196.12890625 1077.61523438 319.0078125 c 1
 1151.34375 194.81640625 l 2
 1047.84375 78.8564453125 901.745117188 -25.0556640625 708.9765625 -25.0556640625 c 0
 266.607421875 -25.0556640625 70 417.311523438 70 736.799804688 c 0
EndSplineSet
EndChar

StartChar: D
Encoding: 68 68 3
Width: 1338
VWidth: 2457
Flags: HW
HStem: -0.480469 147.457<295.033 794.925> 1326.62 147.457<295.033 794.925>
VStem: 123 172.033<146.977 1326.62> 1081.46 172.032<479.895 993.705>
LayerCount: 2
Fore
SplineSet
123 1474.08007812 m 1
 663.671875 1474.08007812 l 2
 983.16015625 1474.08007812 1253.49609375 1105.44042969 1253.49609375 736.799804688 c 0
 1253.49609375 368.16015625 983.16015625 -0.48046875 663.671875 -0.48046875 c 2
 123 -0.48046875 l 1
 123 1474.08007812 l 1
295.033203125 146.9765625 m 1
 663.671875 146.9765625 l 2
 761.9765625 146.9765625 1081.46386719 269.85546875 1081.46386719 736.799804688 c 0
 1081.46386719 1203.74414062 761.9765625 1326.62304688 663.671875 1326.62304688 c 2
 295.033203125 1326.62304688 l 1
 295.033203125 146.9765625 l 1
EndSplineSet
EndChar

StartChar: E
Encoding: 69 69 4
Width: 1179
VWidth: 2457
Flags: HW
HStem: -0.480469 147.457<295.033 1106.04> 663.071 147.457<295.033 958.585> 1326.62 147.457<295.033 1056.89>
VStem: 123 172.033<146.977 663.071 810.528 1326.62>
LayerCount: 2
Fore
SplineSet
123 -0.48046875 m 1
 123 1474.08007812 l 1
 1056.88867188 1474.08007812 l 1
 1056.88867188 1326.62304688 l 1
 295.033203125 1326.62304688 l 1
 295.033203125 810.528320312 l 1
 1007.73632812 810.528320312 l 1
 958.584960938 663.071289062 l 1
 295.033203125 663.071289062 l 1
 295.033203125 146.9765625 l 1
 1106.04101562 146.9765625 l 1
 1106.04101562 -0.48046875 l 1
 123 -0.48046875 l 1
EndSplineSet
EndChar

StartChar: F
Encoding: 70 70 5
Width: 1122
VWidth: 2457
Flags: HW
HStem: -0.480469 21G<123 295.033> 663.071 147.457<295.033 958.585> 1326.62 147.457<295.033 1056.89>
VStem: 123 172.033<-0.480469 663.071 810.528 1326.62>
LayerCount: 2
Fore
SplineSet
123 -0.48046875 m 1
 123 1474.08007812 l 1
 1056.88867188 1474.08007812 l 1
 1056.88867188 1326.62304688 l 1
 295.033203125 1326.62304688 l 1
 295.033203125 810.528320312 l 1
 1007.73632812 810.528320312 l 1
 958.584960938 663.071289062 l 1
 295.033203125 663.071289062 l 1
 295.033203125 -0.48046875 l 1
 123 -0.48046875 l 1
EndSplineSet
EndChar

StartChar: G
Encoding: 71 71 6
Width: 1349
VWidth: 2457
Flags: HW
HStem: -25.0557 147.456<551.846 941.543> 663.071 147.457<760.129 1079.62> 1351.2 147.456<551.846 963.28>
VStem: 72 172.032<475.742 997.858> 1079.62 172.032<245.28 663.071>
LayerCount: 2
Fore
SplineSet
72 736.799804688 m 0
 72 1105.44042969 268.608398438 1498.65625 760.12890625 1498.65625 c 0
 952.897460938 1498.65625 1123.57324219 1394.74316406 1227.07128906 1278.78417969 c 2
 1153.34472656 1154.59179688 l 1
 1055.04003906 1277.47167969 920.520507812 1351.20019531 760.12890625 1351.20019531 c 0
 366.912109375 1351.20019531 244.032226562 982.559570312 244.032226562 736.799804688 c 0
 244.032226562 491.040039062 366.912109375 122.400390625 760.12890625 122.400390625 c 0
 920.520507812 122.400390625 1079.61621094 245.280273438 1079.61621094 245.280273438 c 1
 1079.61621094 663.071289062 l 1
 710.9765625 663.071289062 l 1
 760.12890625 810.528320312 l 1
 1251.6484375 810.528320312 l 1
 1251.6484375 171.551757812 l 2
 1148.14941406 55.587890625 952.897460938 -25.0556640625 760.12890625 -25.0556640625 c 0
 268.608398438 -25.0556640625 72 368.16015625 72 736.799804688 c 0
EndSplineSet
EndChar

StartChar: H
Encoding: 72 72 7
Width: 1331
VWidth: 2457
Flags: HW
HStem: -0.480469 21G<123 295.033 1032.31 1204.34> 663.071 147.457<295.033 1032.31> 1454.08 20G<123 295.033 1032.31 1204.34>
VStem: 123 172.033<-0.480469 663.071 810.528 1474.08> 1032.31 172.032<-0.480469 663.071 810.528 1474.08>
LayerCount: 2
Fore
SplineSet
123 -0.48046875 m 1
 123 1474.08007812 l 1
 295.033203125 1474.08007812 l 1
 295.033203125 810.528320312 l 1
 1032.3125 810.528320312 l 1
 1032.3125 1474.08007812 l 1
 1204.34472656 1474.08007812 l 1
 1204.34472656 -0.48046875 l 1
 1032.3125 -0.48046875 l 1
 1032.3125 663.071289062 l 1
 295.033203125 663.071289062 l 1
 295.033203125 -0.48046875 l 1
 123 -0.48046875 l 1
EndSplineSet
EndChar

StartChar: I
Encoding: 73 73 8
Width: 927
VWidth: 2457
Flags: W
HStem: -0.480469 147.457<88 382.912 554.944 849.855> 1326.62 147.457<88 382.912 554.944 800.704>
VStem: 382.912 172.032<146.977 1326.62>
LayerCount: 2
Fore
SplineSet
849.85546875 146.9765625 m 1
 849.85546875 -0.48046875 l 1
 88 -0.48046875 l 1
 88 146.9765625 l 1
 382.912109375 146.9765625 l 1
 382.912109375 1326.62304688 l 1
 88 1326.62304688 l 1
 88 1474.08007812 l 1
 849.85546875 1474.08007812 l 1
 800.704101562 1326.62304688 l 1
 554.944335938 1326.62304688 l 1
 554.944335938 146.9765625 l 1
 849.85546875 146.9765625 l 1
EndSplineSet
EndChar

StartChar: J
Encoding: 74 74 9
Width: 927
VWidth: 2457
Flags: HW
HStem: -0.480469 147.457<88 382.912 554.944 849.855> 1326.62 147.457<88 382.912 554.944 800.704>
VStem: 382.912 172.032<146.977 1326.62>
LayerCount: 2
Fore
SplineSet
849.85546875 146.9765625 m 1
 849.85546875 -0.48046875 l 1
 88 -0.48046875 l 1
 88 146.9765625 l 1
 382.912109375 146.9765625 l 1
 382.912109375 1326.62304688 l 1
 88 1326.62304688 l 1
 88 1474.08007812 l 1
 849.85546875 1474.08007812 l 1
 800.704101562 1326.62304688 l 1
 554.944335938 1326.62304688 l 1
 554.944335938 146.9765625 l 1
 849.85546875 146.9765625 l 1
EndSplineSet
EndChar

StartChar: K
Encoding: 75 75 10
Width: 1399
VWidth: 2457
Flags: HW
HStem: -0.480469 21G<123 295.033 1112.04 1351.8> 1454.08 20G<123 295.033 1060.82 1302.65>
VStem: 123 172.033<-0.480469 491.04 712.224 1474.08>
LayerCount: 2
Fore
SplineSet
123 -0.48046875 m 1
 123 1474.08007812 l 1
 295.033203125 1474.08007812 l 1
 295.033203125 712.223632812 l 1
 491.640625 902.688476562 l 1
 491.640625 908.83203125 l 1
 494.673828125 905.626953125 l 1
 1081.46386719 1474.08007812 l 1
 1302.6484375 1474.08007812 l 1
 602.809570312 791.309570312 l 1
 1351.80078125 -0.48046875 l 1
 1130.61621094 -0.48046875 l 1
 493.9765625 685.130859375 l 1
 295.033203125 491.040039062 l 1
 295.033203125 -0.48046875 l 1
 123 -0.48046875 l 1
EndSplineSet
EndChar

StartChar: L
Encoding: 76 76 11
Width: 1181
VWidth: 2457
Flags: HW
HStem: -0.480469 147.457<295.033 1106.04> 1454.08 20G<123 295.033>
VStem: 123 172.033<146.977 1474.08>
LayerCount: 2
Fore
SplineSet
123 -0.48046875 m 1
 123 1474.08007812 l 1
 295.033203125 1474.08007812 l 1
 295.033203125 146.9765625 l 1
 1106.04101562 146.9765625 l 1
 1106.04101562 -0.48046875 l 1
 123 -0.48046875 l 1
EndSplineSet
EndChar

StartChar: M
Encoding: 77 77 12
Width: 1725
VWidth: 2457
Flags: HW
HStem: -0.480469 21G<123 295.033 1425.53 1597.56> 1454.08 20G<123 282.764 1437.8 1597.56>
VStem: 123 172.033<-0.480469 1154.59> 1425.53 172.031<-0.480469 1154.59>
LayerCount: 2
Fore
SplineSet
123 1474.08007812 m 1
 270.456054688 1474.08007812 l 1
 860.28125 515.615234375 l 1
 1450.10449219 1474.08007812 l 1
 1597.56054688 1474.08007812 l 1
 1597.56054688 -0.48046875 l 1
 1425.52929688 -0.48046875 l 1
 1425.52929688 1154.59179688 l 1
 934.0078125 368.16015625 l 1
 786.552734375 368.16015625 l 1
 295.033203125 1154.59179688 l 1
 295.033203125 -0.48046875 l 1
 123 -0.48046875 l 1
 123 1474.08007812 l 1
EndSplineSet
EndChar

StartChar: N
Encoding: 78 78 13
Width: 1479
VWidth: 2457
Flags: HW
HStem: -0.480469 21G<123 295.033 1188.93 1351.8> 1454.08 20G<123 285.873 1179.77 1351.8>
VStem: 123 172.033<-0.480469 1179.17> 1179.77 172.033<294.433 1474.08>
LayerCount: 2
Fore
SplineSet
123 -0.48046875 m 5
 123 1474.08007812 l 5
 270.456054688 1474.08007812 l 5
 1179.76757812 294.432617188 l 5
 1179.76757812 1474.08007812 l 5
 1351.80078125 1474.08007812 l 5
 1351.80078125 -0.48046875 l 5
 1204.34472656 -0.48046875 l 5
 295.033203125 1179.16796875 l 5
 295.033203125 -0.48046875 l 5
 123 -0.48046875 l 5
EndSplineSet
EndChar

StartChar: O
Encoding: 79 79 14
Width: 1434
VWidth: 2457
Flags: W
HStem: -25.0557 147.456<537.458 880.495> 1351.2 147.456<537.458 880.495>
VStem: 70 172.032<496.792 976.809> 1175.92 172.032<496.792 976.809>
LayerCount: 2
Fore
SplineSet
70 736.799804688 m 0
 70 1056.28808594 266.607421875 1498.65625 708.9765625 1498.65625 c 0
 1151.34375 1498.65625 1347.95117188 1056.28808594 1347.95117188 736.799804688 c 0
 1347.95117188 417.311523438 1151.34375 -25.0556640625 708.9765625 -25.0556640625 c 0
 266.607421875 -25.0556640625 70 417.311523438 70 736.799804688 c 0
708.9765625 1351.20019531 m 0
 364.911132812 1351.20019531 242.032226562 933.408203125 242.032226562 736.799804688 c 0
 242.032226562 540.192382812 364.911132812 122.400390625 708.9765625 122.400390625 c 0
 1053.04003906 122.400390625 1175.91894531 540.192382812 1175.91894531 736.799804688 c 0
 1175.91894531 933.408203125 1053.04003906 1351.20019531 708.9765625 1351.20019531 c 0
EndSplineSet
EndChar

StartChar: P
Encoding: 80 80 15
Width: 1154
VWidth: 2457
Flags: HW
HStem: -0.480469 21G<123 295.033> 663.071 147.457<295.033 802.798> 1326.62 147.457<295.033 793.488>
VStem: 123 172.033<-0.480469 663.071 810.528 1326.62> 909.433 172.031<910.901 1216.57>
LayerCount: 2
Fore
SplineSet
123 -0.48046875 m 1
 123 1474.08007812 l 1
 295.033203125 1474.08007812 l 1
 663.671875 1474.08007812 l 2
 909.432617188 1474.08007812 1081.46386719 1302.04785156 1081.46386719 1056.28808594 c 0
 1081.46386719 810.528320312 860.28125 663.071289062 663.671875 663.071289062 c 2
 295.033203125 663.071289062 l 1
 295.033203125 146.9765625 l 1
 295.033203125 -0.48046875 l 1
 123 -0.48046875 l 1
663.671875 810.528320312 m 2
 737.400390625 810.528320312 909.432617188 859.680664062 909.432617188 1056.28808594 c 0
 909.432617188 1252.89648438 761.9765625 1326.62304688 663.671875 1326.62304688 c 2
 295.033203125 1326.62304688 l 1
 295.033203125 810.528320312 l 1
 663.671875 810.528320312 l 2
EndSplineSet
EndChar

StartChar: Q
Encoding: 81 81 16
Width: 1444
VWidth: 2457
Flags: HW
HStem: -147.937 147.456<1111.96 1347.95> -25.0557 147.456<537.458 884.022> 1351.2 147.456<537.458 880.495>
VStem: 70 172.032<496.792 976.809> 1175.92 172.032<492.717 976.809>
LayerCount: 2
Fore
SplineSet
708.9765625 1498.65625 m 0x78
 1151.34375 1498.65625 1347.95117188 1056.28808594 1347.95117188 736.799804688 c 0
 1347.95117188 521.459960938 1258.6328125 250.2890625 1064.93945312 96.384765625 c 0
 1096.96679688 31.80859375 1185.234375 -0.48046875 1225.07128906 -0.48046875 c 2
 1397.10351562 -0.48046875 l 1
 1347.95117188 -147.936523438 l 1
 1225.07128906 -147.936523438 l 2xb8
 1081.77929688 -147.936523438 969.432617188 -75.7373046875 908.075195312 8.5302734375 c 0
 848.248046875 -13.013671875 781.95703125 -25.0556640625 708.9765625 -25.0556640625 c 0
 266.607421875 -25.0556640625 70 417.311523438 70 736.799804688 c 0
 70 1056.28808594 266.607421875 1498.65625 708.9765625 1498.65625 c 0x78
242.032226562 736.799804688 m 0
 242.032226562 540.192382812 364.911132812 122.400390625 708.9765625 122.400390625 c 0x78
 1053.04003906 122.400390625 1175.91894531 540.192382812 1175.91894531 736.799804688 c 0
 1175.91894531 933.408203125 1053.04003906 1351.20019531 708.9765625 1351.20019531 c 0
 364.911132812 1351.20019531 242.032226562 933.408203125 242.032226562 736.799804688 c 0
EndSplineSet
EndChar

StartChar: R
Encoding: 82 82 17
Width: 1183
VWidth: 2457
Flags: HW
HStem: -0.480469 21G<123 295.033 920.674 1130.62> 663.071 147.457<295.033 491.641> 1326.62 147.457<295.033 793.488>
VStem: 123 172.033<-0.480469 663.071 810.528 1326.62> 909.433 172.031<914.404 1216.57>
LayerCount: 2
Fore
SplineSet
123 1474.08007812 m 1
 295.033203125 1474.08007812 l 1
 663.671875 1474.08007812 l 2
 909.432617188 1474.08007812 1081.46386719 1302.04785156 1081.46386719 1056.28808594 c 0
 1081.46386719 823.5390625 883.077148438 678.95703125 695.065429688 664.305664062 c 1
 1130.61621094 -0.48046875 l 1
 934.0078125 -0.48046875 l 1
 491.640625 663.071289062 l 1
 295.033203125 663.071289062 l 1
 295.033203125 146.9765625 l 1
 295.033203125 -0.48046875 l 1
 123 -0.48046875 l 1
 123 1474.08007812 l 1
295.033203125 810.528320312 m 1
 663.671875 810.528320312 l 2
 737.400390625 810.528320312 909.432617188 859.680664062 909.432617188 1056.28808594 c 0
 909.432617188 1252.89648438 761.9765625 1326.62304688 663.671875 1326.62304688 c 2
 295.033203125 1326.62304688 l 1
 295.033203125 810.528320312 l 1
EndSplineSet
EndChar

StartChar: S
Encoding: 83 83 18
Width: 1254
VWidth: 2457
Flags: HW
HStem: -25.0557 147.456<410.396 872.635> 1351.2 147.456<420.496 810.545>
VStem: 95.152 172.032<947.048 1217.79> 1004.46 172.032<234.922 517.2>
LayerCount: 2
Fore
SplineSet
95.15234375 1080.86328125 m 0
 95.15234375 1182.55859375 140.208007812 1498.65625 611.248046875 1498.65625 c 0
 977.357421875 1498.65625 1127.34472656 1277.47167969 1127.34472656 1277.47167969 c 1
 1029.04003906 1130.015625 l 1
 1029.04003906 1130.015625 889.163085938 1351.20019531 611.248046875 1351.20019531 c 0
 457.088867188 1351.20019531 267.184570312 1269.68066406 267.184570312 1080.86328125 c 0
 267.184570312 892.046875 453.283203125 837.232421875 611.248046875 810.528320312 c 0
 769.213867188 783.82421875 1176.49609375 748.665039062 1176.49609375 392.736328125 c 0
 1176.49609375 174.58984375 1082.28710938 -25.0556640625 611.248046875 -25.0556640625 c 0
 251.544921875 -25.0556640625 46 196.12890625 46 196.12890625 c 1
 144.303710938 343.583984375 l 1
 144.303710938 343.583984375 354.317382812 122.400390625 611.248046875 122.400390625 c 0
 846.76953125 122.400390625 1004.46386719 176.948242188 1004.46386719 392.736328125 c 0
 1004.46386719 608.5234375 735.907226562 638.928710938 611.248046875 663.071289062 c 0
 486.588867188 687.215820312 95.15234375 724.934570312 95.15234375 1080.86328125 c 0
EndSplineSet
EndChar

StartChar: T
Encoding: 84 84 19
Width: 1158
VWidth: 2457
Flags: W
HStem: -0.480469 21G<494.367 666.4> 1326.62 147.457<52 494.367 666.4 1059.62>
VStem: 494.367 172.033<-0.480469 1326.62>
LayerCount: 2
Fore
SplineSet
666.400390625 1326.62304688 m 5
 666.400390625 -0.48046875 l 5
 494.3671875 -0.48046875 l 5
 494.3671875 1326.62304688 l 5
 52 1326.62304688 l 5
 52 1474.08007812 l 5
 1108.76757812 1474.08007812 l 5
 1059.61523438 1326.62304688 l 5
 666.400390625 1326.62304688 l 5
EndSplineSet
EndChar

StartChar: U
Encoding: 85 85 20
Width: 1350
VWidth: 2457
Flags: HW
HStem: -25.0557 147.456<483.26 853.236> 1454.08 20G<103 275.032 1061.46 1233.5>
VStem: 103 172.032<342.913 1474.08> 1061.46 172.032<342.913 1474.08>
LayerCount: 2
Fore
SplineSet
103 540.192382812 m 2
 103 1474.08007812 l 1
 275.032226562 1474.08007812 l 1
 275.032226562 540.192382812 l 2
 275.032226562 368.16015625 373.336914062 122.400390625 668.248046875 122.400390625 c 0
 963.16015625 122.400390625 1061.46386719 368.16015625 1061.46386719 540.192382812 c 2
 1061.46386719 1474.08007812 l 1
 1233.49609375 1474.08007812 l 1
 1233.49609375 540.192382812 l 2
 1233.49609375 220.704101562 987.736328125 -25.0556640625 668.248046875 -25.0556640625 c 0
 348.759765625 -25.0556640625 103 220.704101562 103 540.192382812 c 2
EndSplineSet
EndChar

StartChar: V
Encoding: 86 86 21
Width: 1353
VWidth: 2457
Flags: HW
HStem: -0.480469 21G<574.338 773.326> 1454.08 20G<41 232.653 1115.01 1306.66>
LayerCount: 2
Fore
SplineSet
225.319335938 1474.08007812 m 1
 673.83203125 250.86328125 l 1
 1122.34375 1474.08007812 l 1
 1306.66308594 1474.08007812 l 1
 765.9921875 -0.48046875 l 1
 581.670898438 -0.48046875 l 1
 41 1474.08007812 l 1
 225.319335938 1474.08007812 l 1
EndSplineSet
EndChar

StartChar: W
Encoding: 87 87 22
Width: 1956
VWidth: 2457
Flags: HW
HStem: -0.480469 21G<525.853 722.84 1226.94 1423.92> 1454.08 20G<41 231.849 1717.93 1908.78>
LayerCount: 2
Fore
SplineSet
225.319335938 1474.08007812 m 1
 624.680664062 250.86328125 l 1
 876.583984375 1105.44042969 l 1
 1073.19238281 1105.44042969 l 1
 1325.09570312 250.86328125 l 1
 1724.45605469 1474.08007812 l 1
 1908.77636719 1474.08007812 l 1
 1417.25585938 -0.48046875 l 1
 1232.93652344 -0.48046875 l 1
 974.887695312 859.680664062 l 1
 716.83984375 -0.48046875 l 1
 532.51953125 -0.48046875 l 1
 41 1474.08007812 l 1
 225.319335938 1474.08007812 l 1
EndSplineSet
EndChar

StartChar: X
Encoding: 88 88 23
Width: 1196
VWidth: 2457
Flags: HW
HStem: -0.480469 21G<66 262.319 938.736 1135.06> 1454.08 20G<66 262.319 938.736 1135.06>
LayerCount: 2
Fore
SplineSet
250.319335938 1474.08007812 m 1
 600.528320312 890.400390625 l 1
 950.736328125 1474.08007812 l 1
 1135.05566406 1474.08007812 l 1
 692.688476562 736.799804688 l 1
 1135.05566406 -0.48046875 l 1
 950.736328125 -0.48046875 l 1
 600.528320312 583.200195312 l 1
 250.319335938 -0.48046875 l 1
 66 -0.48046875 l 1
 508.3671875 736.799804688 l 1
 66 1474.08007812 l 1
 250.319335938 1474.08007812 l 1
EndSplineSet
EndChar

StartChar: Y
Encoding: 89 89 24
Width: 1137
VWidth: 2457
Flags: W
HStem: -0.480469 21G<480.367 652.399> 1454.08 20G<38 233.145 911.524 1094.77>
VStem: 480.367 172.032<-0.480469 687.648>
LayerCount: 2
Fore
SplineSet
38 1474.08007812 m 1
 222.319335938 1474.08007812 l 1
 566.383789062 838.45703125 l 1
 922.736328125 1474.08007812 l 1
 1094.76757812 1474.08007812 l 1
 652.399414062 687.6484375 l 1
 652.399414062 -0.48046875 l 1
 480.3671875 -0.48046875 l 1
 480.3671875 687.6484375 l 1
 38 1474.08007812 l 1
EndSplineSet
EndChar

StartChar: Z
Encoding: 90 90 25
Width: 1158
VWidth: 2457
Flags: HW
HStem: -0.480469 172.032<312.185 1074.04> 1302.05 172.032<91 852.855>
LayerCount: 2
Fore
SplineSet
91 1302.04785156 m 1
 91 1474.08007812 l 1
 1074.04003906 1474.08007812 l 1
 1074.04003906 1351.20019531 l 1
 312.184570312 171.551757812 l 1
 1074.04003906 171.551757812 l 1
 1074.04003906 -0.48046875 l 1
 91 -0.48046875 l 1
 91 122.400390625 l 1
 852.85546875 1302.04785156 l 1
 91 1302.04785156 l 1
EndSplineSet
EndChar

StartChar: a
Encoding: 97 97 26
Width: 1008
VWidth: 2457
Flags: W
HStem: -0.480469 147.457<287.911 583.569> 466.464 147.456<317.406 724.552> 908.832 147.456<327.296 629.46>
VStem: 61 172.032<201.32 390.264> 724.552 172.032<268.663 466.464 613.92 812.688> 773.704 122.88<-0.480469 56.8606>
LayerCount: 2
Fore
SplineSet
773.704101562 -0.48046875 m 5xf4
 734.981445312 154.40234375 l 5
 643.1171875 66.19921875 527.284179688 -0.48046875 429.640625 -0.48046875 c 4
 233.032226562 -0.48046875 61 146.9765625 61 319.0078125 c 4
 61 491.040039062 233.032226562 613.919921875 454.215820312 613.919921875 c 6
 724.551757812 613.919921875 l 5
 724.551757812 687.6484375 l 6
 724.551757812 810.528320312 626.248046875 908.83203125 478.791992188 908.83203125 c 4
 331.3359375 908.83203125 233.032226562 785.952148438 233.032226562 785.952148438 c 5
 110.15234375 859.680664062 l 5
 110.15234375 859.680664062 257.607421875 1056.28808594 478.791992188 1056.28808594 c 4
 699.9765625 1056.28808594 896.583984375 908.83203125 896.583984375 687.6484375 c 6
 896.583984375 613.919921875 l 5
 896.583984375 441.888671875 l 5xf8
 896.583984375 -0.48046875 l 5
 773.704101562 -0.48046875 l 5xf4
724.551757812 368.16015625 m 6
 724.551757812 466.463867188 l 5
 454.215820312 466.463867188 l 6
 355.912109375 466.463867188 233.032226562 392.736328125 233.032226562 294.432617188 c 4
 233.032226562 196.12890625 331.3359375 146.9765625 454.215820312 146.9765625 c 4
 577.095703125 146.9765625 724.551757812 269.85546875 724.551757812 368.16015625 c 6
EndSplineSet
EndChar

StartChar: b
Encoding: 98 98 27
Width: 1138
VWidth: 2457
Flags: W
HStem: -25.0557 147.456<451.421 729.552> -0.480469 21G<123 250.881> 908.832 147.456<450.26 729.552> 1454.08 20G<123 295.033>
VStem: 123 172.033<301.899 729.332 859.424 1474.08> 123 122.881<-0.480469 56.8645> 884.856 172.032<303.579 727.653>
LayerCount: 2
Fore
SplineSet
245.880859375 -0.48046875 m 1x76
 123 -0.48046875 l 1x76
 123 1474.08007812 l 1
 295.033203125 1474.08007812 l 1
 295.033203125 859.423828125 l 1
 341.619140625 976.111328125 429.337890625 1056.28808594 589.944335938 1056.28808594 c 0
 884.856445312 1056.28808594 1056.88867188 785.952148438 1056.88867188 515.615234375 c 0
 1056.88867188 245.280273438 884.856445312 -25.0556640625 589.944335938 -25.0556640625 c 0xba
 424.9921875 -25.0556640625 336.92578125 59.5146484375 291.33984375 181.358398438 c 1
 245.880859375 -0.48046875 l 1x76
295.033203125 515.615234375 m 0xba
 295.033203125 294.432617188 417.912109375 122.400390625 589.944335938 122.400390625 c 0
 761.9765625 122.400390625 884.856445312 294.432617188 884.856445312 515.615234375 c 0
 884.856445312 736.799804688 761.9765625 908.83203125 589.944335938 908.83203125 c 0
 417.912109375 908.83203125 295.033203125 736.799804688 295.033203125 515.615234375 c 0xba
EndSplineSet
EndChar

StartChar: c
Encoding: 99 99 28
Width: 928
VWidth: 2457
Flags: W
HStem: -25.0557 147.456<394.337 687.969> 908.832 147.456<394.337 687.969>
VStem: 67 172.032<303.579 727.653>
LayerCount: 2
Fore
SplineSet
533.944335938 1056.28808594 m 0
 666.9296875 1056.28808594 774.92578125 981.739257812 853.432617188 902.079101562 c 2
 779.704101562 785.952148438 l 1
 727.116210938 857.857421875 625.150390625 908.83203125 533.944335938 908.83203125 c 0
 361.912109375 908.83203125 239.032226562 736.799804688 239.032226562 515.615234375 c 0
 239.032226562 294.432617188 361.912109375 122.400390625 533.944335938 122.400390625 c 0
 625.150390625 122.400390625 727.116210938 173.375 779.704101562 245.280273438 c 1
 853.432617188 129.153320312 l 2
 774.92578125 49.4931640625 666.9296875 -25.0556640625 533.944335938 -25.0556640625 c 0
 239.032226562 -25.0556640625 67 245.280273438 67 515.615234375 c 0
 67 785.952148438 239.032226562 1056.28808594 533.944335938 1056.28808594 c 0
EndSplineSet
EndChar

StartChar: d
Encoding: 100 100 29
Width: 1128
VWidth: 2457
Flags: W
HStem: -25.0557 147.456<394.337 672.469> -0.480469 21G<873.008 1000.89> 908.832 147.456<394.337 673.628> 1454.08 20G<828.856 1000.89>
VStem: 67 172.033<303.579 727.653> 828.856 172.032<301.899 729.332 859.424 1474.08> 878.008 122.881<-0.480469 56.8632>
LayerCount: 2
Fore
SplineSet
878.0078125 -0.48046875 m 1x7a
 832.547851562 181.358398438 l 1
 786.963867188 59.5146484375 698.8984375 -25.0556640625 533.944335938 -25.0556640625 c 0
 239.033203125 -25.0556640625 67 245.280273438 67 515.615234375 c 0
 67 785.952148438 239.033203125 1056.28808594 533.944335938 1056.28808594 c 0
 694.548828125 1056.28808594 782.270507812 976.111328125 828.856445312 859.423828125 c 1
 828.856445312 1474.08007812 l 1
 1000.88867188 1474.08007812 l 1xbc
 1000.88867188 -0.48046875 l 1
 878.0078125 -0.48046875 l 1x7a
828.856445312 515.615234375 m 0
 828.856445312 736.799804688 705.9765625 908.83203125 533.944335938 908.83203125 c 0
 361.912109375 908.83203125 239.033203125 736.799804688 239.033203125 515.615234375 c 0
 239.033203125 294.432617188 361.912109375 122.400390625 533.944335938 122.400390625 c 0
 705.9765625 122.400390625 828.856445312 294.432617188 828.856445312 515.615234375 c 0
EndSplineSet
EndChar

StartChar: e
Encoding: 101 101 30
Width: 1082
VWidth: 2948
Flags: W
HStem: -25.0557 147.456<393.547 721.956> 908.832 147.456<393.942 674.341>
VStem: 67 172.734<544.404 725.973>
LayerCount: 2
Fore
SplineSet
67 515.615234375 m 0
 67 785.952148438 239.032226562 1056.28808594 533.944335938 1056.28808594 c 0
 828.85546875 1056.28808594 1000.88867188 785.952148438 1000.88867188 515.615234375 c 1
 252.9140625 390.951171875 l 1
 289.625976562 233.045898438 395.978515625 122.400390625 533.944335938 122.400390625 c 0
 720.83984375 122.400390625 828.85546875 220.704101562 902.583984375 368.16015625 c 1
 1000.42089844 245.280273438 l 2
 951.736328125 146.9765625 828.85546875 -25.0556640625 533.944335938 -25.0556640625 c 0
 239.032226562 -25.0556640625 67 245.280273438 67 515.615234375 c 0
239.734375 544.404296875 m 1
 814.970703125 640.279296875 l 1
 778.263671875 798.186523438 671.909179688 908.83203125 533.944335938 908.83203125 c 0
 369.451171875 908.83203125 249.8984375 751.55078125 239.734375 544.404296875 c 1
EndSplineSet
EndChar

StartChar: f
Encoding: 102 102 31
Width: 691
VWidth: 2457
Flags: W
HStem: -0.480469 21G<197.456 369.488> 884.256 147.456<50 197.456 369.488 590.672> 1326.62 147.457<401.954 590.672>
VStem: 197.456 172.032<-0.480469 884.256 1031.71 1295.82>
LayerCount: 2
Fore
SplineSet
639.823242188 1474.08007812 m 1
 590.671875 1326.62304688 l 1
 467.791992188 1326.62304688 l 2
 418.640625 1326.62304688 369.48828125 1252.89648438 369.48828125 1179.16796875 c 2
 369.48828125 1031.71191406 l 1
 590.671875 1031.71191406 l 1
 590.671875 884.255859375 l 1
 369.48828125 884.255859375 l 1
 369.48828125 -0.48046875 l 1
 197.456054688 -0.48046875 l 1
 197.456054688 884.255859375 l 1
 50 884.255859375 l 1
 50 1031.71191406 l 1
 197.456054688 1031.71191406 l 1
 197.456054688 1179.16796875 l 2
 197.456054688 1302.04785156 246.608398438 1474.08007812 467.791992188 1474.08007812 c 2
 639.823242188 1474.08007812 l 1
EndSplineSet
EndChar

StartChar: g
Encoding: 103 103 32
Width: 1121
VWidth: 2948
Flags: HW
HStem: -442.848 147.455<362.247 733.502> -25.0557 147.456<394.337 673.628> 908.832 147.456<394.337 672.468> 1011.71 20G<873.008 1000.89>
VStem: 67 172.032<303.579 727.653> 828.855 172.033<-206.13 171.808 301.899 729.332> 878.008 122.881<974.37 1031.71>
LayerCount: 2
Fore
SplineSet
878.0078125 1031.71191406 m 1xda
 1000.88867188 1031.71191406 l 1xda
 1000.88867188 -49.6328125 l 2
 1000.88867188 -319.967773438 804.280273438 -442.84765625 533.944335938 -442.84765625 c 0
 263.607421875 -442.84765625 116.15234375 -221.6640625 116.15234375 -221.6640625 c 1
 239.032226562 -147.936523438 l 1
 239.032226562 -147.936523438 337.3359375 -295.392578125 533.944335938 -295.392578125 c 0
 730.551757812 -295.392578125 828.85546875 -221.6640625 828.85546875 -49.6328125 c 2
 828.85546875 171.807617188 l 1
 782.270507812 55.1201171875 694.548828125 -25.0556640625 533.944335938 -25.0556640625 c 0
 239.032226562 -25.0556640625 67 245.280273438 67 515.615234375 c 0
 67 785.952148438 239.032226562 1056.28808594 533.944335938 1056.28808594 c 0xec
 698.8984375 1056.28808594 786.963867188 971.717773438 832.546875 849.874023438 c 1
 878.0078125 1031.71191406 l 1xda
828.85546875 515.615234375 m 0xec
 828.85546875 736.799804688 705.9765625 908.83203125 533.944335938 908.83203125 c 0
 361.912109375 908.83203125 239.032226562 736.799804688 239.032226562 515.615234375 c 0
 239.032226562 294.432617188 361.912109375 122.400390625 533.944335938 122.400390625 c 0
 705.9765625 122.400390625 828.85546875 294.432617188 828.85546875 515.615234375 c 0xec
EndSplineSet
EndChar

StartChar: h
Encoding: 104 104 33
Width: 1066
VWidth: 2457
Flags: HW
HStem: -0.480469 21G<123 295.033 786.553 958.585> 908.832 147.456<418.253 661.5> 1454.08 20G<123 295.033>
VStem: 123 172.033<-0.480469 764.003 898.471 1474.08> 786.553 172.032<-0.480469 764.003>
LayerCount: 2
Fore
SplineSet
295.033203125 -0.48046875 m 1
 123 -0.48046875 l 1
 123 1474.08007812 l 1
 295.033203125 1474.08007812 l 1
 295.033203125 898.470703125 l 1
 337.028320312 995.3984375 411.849609375 1056.28808594 540.79296875 1056.28808594 c 0
 786.552734375 1056.28808594 958.584960938 835.103515625 958.584960938 564.767578125 c 2
 958.584960938 -0.48046875 l 1
 786.552734375 -0.48046875 l 1
 786.552734375 564.767578125 l 2
 786.552734375 785.952148438 663.671875 908.83203125 540.79296875 908.83203125 c 0
 417.912109375 908.83203125 295.033203125 785.952148438 295.033203125 564.767578125 c 2
 295.033203125 -0.48046875 l 1
EndSplineSet
EndChar

StartChar: i
Encoding: 105 105 34
Width: 424
VWidth: 2457
Flags: HW
HStem: -0.480469 21G<124 296.032> 1011.71 20G<124 296.032> 1277.47 196.608<124 296.032>
VStem: 124 172.032<-0.480469 1031.71 1277.47 1474.08>
LayerCount: 2
Fore
SplineSet
124 -0.48046875 m 1
 124 1031.71191406 l 1
 296.032226562 1031.71191406 l 1
 296.032226562 -0.48046875 l 1
 124 -0.48046875 l 1
124 1277.47167969 m 1
 124 1474.08007812 l 1
 296.032226562 1474.08007812 l 1
 296.032226562 1277.47167969 l 1
 124 1277.47167969 l 1
EndSplineSet
EndChar

StartChar: j
Encoding: 106 106 35
Width: 590
VWidth: 2457
Flags: HW
HStem: -393.696 147.456<70.152 258.87> 1011.71 20G<291.336 463.367> 1277.47 196.608<291.336 463.367>
VStem: 291.336 172.031<-215.433 1031.71 1277.47 1474.08>
LayerCount: 2
Fore
SplineSet
291.3359375 1277.47167969 m 1
 291.3359375 1474.08007812 l 1
 463.3671875 1474.08007812 l 1
 463.3671875 1277.47167969 l 1
 291.3359375 1277.47167969 l 1
21 -393.696289062 m 1
 70.15234375 -246.240234375 l 1
 193.032226562 -246.240234375 l 2
 242.184570312 -246.240234375 291.3359375 -172.51171875 291.3359375 -98.7841796875 c 2
 291.3359375 1031.71191406 l 1
 463.3671875 1031.71191406 l 1
 463.3671875 -98.7841796875 l 2
 463.3671875 -221.6640625 414.215820312 -393.696289062 193.032226562 -393.696289062 c 2
 21 -393.696289062 l 1
EndSplineSet
EndChar

StartChar: k
Encoding: 107 107 36
Width: 1153
VWidth: 2457
Flags: HW
HStem: -0.480469 21G<123 295.033 866.523 1106.04> 1011.71 20G<716.224 958.585> 1454.08 20G<123 295.033>
VStem: 123 172.033<-0.480469 392.736 613.92 1474.08>
LayerCount: 2
Fore
SplineSet
123 -0.48046875 m 1
 123 1474.08007812 l 1
 295.033203125 1474.08007812 l 1
 295.033203125 613.919921875 l 1
 415.82421875 728.001953125 l 1
 417.912109375 732.041992188 l 1
 418.942382812 730.946289062 l 1
 737.400390625 1031.71191406 l 1
 958.584960938 1031.71191406 l 1
 526.903320312 616.018554688 l 1
 1106.04101562 -0.48046875 l 1
 884.856445312 -0.48046875 l 1
 416.864257812 510.057617188 l 1
 295.033203125 392.736328125 l 1
 295.033203125 -0.48046875 l 1
 123 -0.48046875 l 1
EndSplineSet
EndChar

StartChar: l
Encoding: 108 108 37
Width: 422
VWidth: 2457
Flags: HW
HStem: -0.480469 21G<123 295.033> 1454.08 20G<123 295.033>
VStem: 123 172.033<-0.480469 1474.08>
LayerCount: 2
Fore
SplineSet
123 -0.48046875 m 1
 123 1474.08007812 l 1
 295.033203125 1474.08007812 l 1
 295.033203125 -0.48046875 l 1
 123 -0.48046875 l 1
EndSplineSet
EndChar

StartChar: m
Encoding: 109 109 38
Width: 1723
VWidth: 2457
Flags: W
HStem: -0.480469 21G<116 288.032 779.552 951.584 1443.1 1615.14> 908.832 147.456<411.667 654.284 1075.51 1318.05> 1011.71 20G<116 243.88>
VStem: 116 172.032<-0.480469 764.003> 116 122.88<974.369 1031.71> 779.552 172.032<-0.480469 764.003> 1443.1 172.032<-0.480469 764.003>
LayerCount: 2
Fore
SplineSet
1197.34375 1056.28808594 m 0xce
 1443.10351562 1056.28808594 1615.13574219 835.103515625 1615.13574219 564.767578125 c 2
 1615.13574219 -0.48046875 l 1
 1443.10351562 -0.48046875 l 1
 1443.10351562 564.767578125 l 2
 1443.10351562 785.952148438 1320.22363281 908.83203125 1197.34375 908.83203125 c 0
 1074.46386719 908.83203125 951.583984375 785.952148438 951.583984375 564.767578125 c 2
 951.583984375 -0.48046875 l 1
 779.551757812 -0.48046875 l 1
 779.551757812 564.767578125 l 2
 779.551757812 785.952148438 656.670898438 908.83203125 533.791992188 908.83203125 c 0
 410.911132812 908.83203125 288.032226562 785.952148438 288.032226562 564.767578125 c 2
 288.032226562 -0.48046875 l 1
 116 -0.48046875 l 1xd6
 116 1031.71191406 l 1
 238.879882812 1031.71191406 l 1xae
 278.338867188 873.879882812 l 1
 318.104492188 984.98828125 394.260742188 1056.28808594 533.791992188 1056.28808594 c 0
 713.32421875 1056.28808594 853.506835938 938.254882812 916.02734375 769.25 c 1
 943.203125 938.254882812 1017.81152344 1056.28808594 1197.34375 1056.28808594 c 0xce
EndSplineSet
EndChar

StartChar: n
Encoding: 110 110 39
Width: 1060
VWidth: 2457
Flags: HW
HStem: -0.480469 21G<116 288.032 779.552 951.584> 908.832 147.456<411.667 654.499> 1011.71 20G<116 243.88>
VStem: 116 172.032<-0.480469 764.003> 116 122.88<974.369 1031.71> 779.552 172.032<-0.480469 764.003>
LayerCount: 2
Fore
SplineSet
278.338867188 873.879882812 m 1xac
 318.104492188 984.98828125 394.260742188 1056.28808594 533.791992188 1056.28808594 c 0
 779.551757812 1056.28808594 951.583984375 835.103515625 951.583984375 564.767578125 c 2
 951.583984375 -0.48046875 l 1
 779.551757812 -0.48046875 l 1
 779.551757812 564.767578125 l 2
 779.551757812 785.952148438 656.670898438 908.83203125 533.791992188 908.83203125 c 0
 410.911132812 908.83203125 288.032226562 785.952148438 288.032226562 564.767578125 c 2
 288.032226562 -0.48046875 l 1
 116 -0.48046875 l 1xd4
 116 1031.71191406 l 1
 238.879882812 1031.71191406 l 1
 278.338867188 873.879882812 l 1xac
EndSplineSet
EndChar

StartChar: o
Encoding: 111 111 40
Width: 1084
VWidth: 2457
Flags: W
HStem: -25.0557 147.456<394.337 673.552> 908.832 147.456<394.337 673.552>
VStem: 67 172.032<303.579 727.653> 828.855 172.033<303.579 727.653>
LayerCount: 2
Fore
SplineSet
67 515.615234375 m 0
 67 785.952148438 239.032226562 1056.28808594 533.944335938 1056.28808594 c 0
 828.85546875 1056.28808594 1000.88867188 785.952148438 1000.88867188 515.615234375 c 0
 1000.88867188 245.280273438 828.85546875 -25.0556640625 533.944335938 -25.0556640625 c 0
 239.032226562 -25.0556640625 67 245.280273438 67 515.615234375 c 0
533.944335938 908.83203125 m 0
 361.912109375 908.83203125 239.032226562 736.799804688 239.032226562 515.615234375 c 0
 239.032226562 294.432617188 361.912109375 122.400390625 533.944335938 122.400390625 c 0
 705.9765625 122.400390625 828.85546875 294.432617188 828.85546875 515.615234375 c 0
 828.85546875 736.799804688 705.9765625 908.83203125 533.944335938 908.83203125 c 0
EndSplineSet
EndChar

StartChar: p
Encoding: 112 112 41
Width: 1133
VWidth: 2457
Flags: HW
HStem: -25.0557 147.456<443.26 722.552> 908.832 147.456<444.42 722.552> 1011.71 20G<116 243.88>
VStem: 116 172.032<-442.848 171.808 301.899 729.332> 116 122.88<974.369 1031.71> 877.855 172.032<303.579 727.653>
LayerCount: 2
Fore
SplineSet
238.879882812 1031.71191406 m 1xac
 284.33984375 849.874023438 l 1
 329.92578125 971.717773438 417.9921875 1056.28808594 582.944335938 1056.28808594 c 0
 877.85546875 1056.28808594 1049.88769531 785.952148438 1049.88769531 515.615234375 c 0
 1049.88769531 245.280273438 877.85546875 -25.0556640625 582.944335938 -25.0556640625 c 0
 422.336914062 -25.0556640625 334.619140625 55.1201171875 288.032226562 171.807617188 c 1
 288.032226562 -442.84765625 l 1
 116 -442.84765625 l 1xd4
 116 1031.71191406 l 1
 238.879882812 1031.71191406 l 1xac
288.032226562 515.615234375 m 0
 288.032226562 294.432617188 410.911132812 122.400390625 582.944335938 122.400390625 c 0
 754.9765625 122.400390625 877.85546875 294.432617188 877.85546875 515.615234375 c 0
 877.85546875 736.799804688 754.9765625 908.83203125 582.944335938 908.83203125 c 0
 410.911132812 908.83203125 288.032226562 736.799804688 288.032226562 515.615234375 c 0
EndSplineSet
EndChar

StartChar: q
Encoding: 113 113 42
Width: 1123
VWidth: 2457
Flags: HW
HStem: -442.848 21G<828.856 1000.89> -25.0557 147.456<394.337 673.628> 908.832 147.456<394.337 672.469> 1011.71 20G<873.008 1000.89>
VStem: 67 172.032<303.579 727.653> 828.856 172.032<-442.848 171.808 301.899 729.332> 878.008 122.881<974.369 1031.71>
LayerCount: 2
Fore
SplineSet
878.0078125 1031.71191406 m 1xda
 1000.88867188 1031.71191406 l 1xda
 1000.88867188 -442.84765625 l 1
 828.856445312 -442.84765625 l 1
 828.856445312 171.807617188 l 1
 782.270507812 55.1201171875 694.548828125 -25.0556640625 533.944335938 -25.0556640625 c 0
 239.032226562 -25.0556640625 67 245.280273438 67 515.615234375 c 0
 67 785.952148438 239.032226562 1056.28808594 533.944335938 1056.28808594 c 0xec
 698.8984375 1056.28808594 786.963867188 971.717773438 832.547851562 849.874023438 c 1
 878.0078125 1031.71191406 l 1xda
828.856445312 515.615234375 m 0xec
 828.856445312 736.799804688 705.9765625 908.83203125 533.944335938 908.83203125 c 0
 361.912109375 908.83203125 239.032226562 736.799804688 239.032226562 515.615234375 c 0
 239.032226562 294.432617188 361.912109375 122.400390625 533.944335938 122.400390625 c 0
 705.9765625 122.400390625 828.856445312 294.432617188 828.856445312 515.615234375 c 0xec
EndSplineSet
EndChar

StartChar: r
Encoding: 114 114 43
Width: 814
VWidth: 2457
Flags: HW
HStem: -0.480469 21G<116 288.032> 908.832 147.456<444.42 664.394> 1011.71 20G<116 243.88>
VStem: 116 172.032<-0.480469 729.332> 116 122.88<974.369 1031.71>
LayerCount: 2
Fore
SplineSet
238.879882812 1031.71191406 m 1xa8
 284.33984375 849.874023438 l 1
 329.92578125 971.717773438 417.9921875 1056.28808594 582.944335938 1056.28808594 c 0
 608.448242188 1056.28808594 633.034179688 1054.26757812 656.670898438 1050.39453125 c 2
 754.9765625 839.901367188 l 1
 707.627929688 883.547851562 648.895507812 908.83203125 582.944335938 908.83203125 c 0
 410.911132812 908.83203125 288.032226562 736.799804688 288.032226562 515.615234375 c 2
 288.032226562 -0.48046875 l 1
 116 -0.48046875 l 1xd0
 116 1031.71191406 l 1
 238.879882812 1031.71191406 l 1xa8
EndSplineSet
EndChar

StartChar: s
Encoding: 115 115 44
Width: 966
VWidth: 2457
Flags: HW
HStem: -25.0557 147.456<306.452 654.697> 908.832 147.456<341.483 629.335>
VStem: 104.151 172.032<679.498 849.045> 718.552 172.032<181.421 377.668>
LayerCount: 2
Fore
SplineSet
104.151367188 761.376953125 m 0
 104.151367188 830.104492188 124.630859375 1056.28808594 472.791992188 1056.28808594 c 0
 743.392578125 1056.28808594 841.431640625 884.255859375 841.431640625 884.255859375 c 1
 743.127929688 736.799804688 l 1
 743.127929688 736.799804688 678.20703125 908.83203125 472.791992188 908.83203125 c 0
 358.84765625 908.83203125 276.18359375 830.104492188 276.18359375 761.376953125 c 0
 276.18359375 692.647460938 356.034179688 631.96875 472.791992188 613.919921875 c 0
 589.546875 595.87109375 890.583984375 533.669921875 890.583984375 293.109375 c 0
 890.583984375 145.673828125 820.950195312 -25.0556640625 472.791992188 -25.0556640625 c 0
 206.923828125 -25.0556640625 55 146.9765625 55 146.9765625 c 1
 153.303710938 294.432617188 l 1
 153.303710938 294.432617188 282.885742188 122.400390625 472.791992188 122.400390625 c 0
 646.874023438 122.400390625 718.551757812 191.3359375 718.551757812 294.432617188 c 0
 718.551757812 397.528320312 564.931640625 450.145507812 472.791992188 466.463867188 c 0
 380.653320312 482.782226562 104.151367188 520.81640625 104.151367188 761.376953125 c 0
EndSplineSet
EndChar

StartChar: t
Encoding: 116 116 45
Width: 701
VWidth: 2457
Flags: W
HStem: -0.480469 147.457<403.954 592.672> 884.256 147.456<52 199.456 371.488 592.672>
VStem: 199.456 172.032<177.783 884.256 1031.71 1277.47>
LayerCount: 2
Fore
SplineSet
641.823242188 -0.48046875 m 1
 469.791992188 -0.48046875 l 2
 248.607421875 -0.48046875 199.456054688 171.551757812 199.456054688 294.432617188 c 2
 199.456054688 884.255859375 l 1
 52 884.255859375 l 1
 52 1031.71191406 l 1
 199.456054688 1031.71191406 l 1
 199.456054688 1277.47167969 l 1
 371.48828125 1277.47167969 l 1
 371.48828125 1031.71191406 l 1
 592.671875 1031.71191406 l 1
 592.671875 884.255859375 l 1
 371.48828125 884.255859375 l 1
 371.48828125 294.432617188 l 2
 371.48828125 220.704101562 420.640625 146.9765625 469.791992188 146.9765625 c 2
 592.671875 146.9765625 l 1
 641.823242188 -0.48046875 l 1
EndSplineSet
EndChar

StartChar: u
Encoding: 117 117 46
Width: 1046
VWidth: 2457
Flags: HW
HStem: -25.0557 147.456<386.085 628.918> -0.480469 21G<796.704 924.585> 1011.71 20G<89 261.033 752.553 924.585>
VStem: 89 172.033<267.229 1031.71> 752.553 172.032<267.229 1031.71> 801.704 122.881<-0.480469 56.8625>
LayerCount: 2
Fore
SplineSet
762.245117188 157.352539062 m 1x74
 722.48046875 46.2431640625 646.325195312 -25.0556640625 506.79296875 -25.0556640625 c 0
 261.033203125 -25.0556640625 89 196.12890625 89 466.463867188 c 2
 89 1031.71191406 l 1
 261.033203125 1031.71191406 l 1
 261.033203125 466.463867188 l 2
 261.033203125 245.280273438 383.912109375 122.400390625 506.79296875 122.400390625 c 0
 629.671875 122.400390625 752.552734375 245.280273438 752.552734375 466.463867188 c 2
 752.552734375 1031.71191406 l 1
 924.584960938 1031.71191406 l 1xb8
 924.584960938 -0.48046875 l 1
 801.704101562 -0.48046875 l 1
 762.245117188 157.352539062 l 1x74
EndSplineSet
EndChar

StartChar: v
Encoding: 118 118 47
Width: 1024
VWidth: 2457
Flags: W
HStem: -0.480469 21G<404.498 603.103> 1011.71 20G<43 234.462 773.137 964.6>
LayerCount: 2
Fore
SplineSet
227.319335938 1031.71191406 m 1
 503.799804688 257.567382812 l 1
 780.280273438 1031.71191406 l 1
 964.599609375 1031.71191406 l 1
 595.959960938 -0.48046875 l 1
 411.640625 -0.48046875 l 1
 43 1031.71191406 l 1
 227.319335938 1031.71191406 l 1
EndSplineSet
EndChar

StartChar: w
Encoding: 119 119 48
Width: 1761
VWidth: 2457
Flags: HW
HStem: -0.480469 21G<404.498 603.103 1141.78 1340.38> 1011.71 20G<43 234.462 773.137 971.742 1510.42 1701.88>
LayerCount: 2
Fore
SplineSet
43 1031.71191406 m 1
 227.319335938 1031.71191406 l 1
 503.799804688 257.567382812 l 1
 780.280273438 1031.71191406 l 1
 964.599609375 1031.71191406 l 1
 1241.08007812 257.567382812 l 1
 1517.55957031 1031.71191406 l 1
 1701.88085938 1031.71191406 l 1
 1333.24023438 -0.48046875 l 1
 1148.91992188 -0.48046875 l 1
 872.440429688 773.6640625 l 1
 595.959960938 -0.48046875 l 1
 411.640625 -0.48046875 l 1
 43 1031.71191406 l 1
EndSplineSet
EndChar

StartChar: x
Encoding: 120 120 49
Width: 974
VWidth: 2457
Flags: W
HStem: -0.480469 21G<69 277.988 695.596 904.584> 1011.71 20G<69 277.988 695.596 904.584>
LayerCount: 2
Fore
SplineSet
486.791992188 356.81640625 m 1
 265.607421875 -0.48046875 l 1
 69 -0.48046875 l 1
 388.48828125 515.615234375 l 1
 69 1031.71191406 l 1
 265.607421875 1031.71191406 l 1
 486.791992188 674.416015625 l 1
 707.9765625 1031.71191406 l 1
 904.583984375 1031.71191406 l 1
 585.095703125 515.615234375 l 1
 904.583984375 -0.48046875 l 1
 707.9765625 -0.48046875 l 1
 486.791992188 356.81640625 l 1
EndSplineSet
EndChar

StartChar: y
Encoding: 121 121 50
Width: 1023
VWidth: 2457
Flags: HW
HStem: -442.848 147.455<104.44 290.957> 1011.71 20G<43 234.463 773.081 964.6>
LayerCount: 2
Fore
SplineSet
43 1031.71191406 m 1
 227.3203125 1031.71191406 l 1
 502.69921875 260.649414062 l 1
 780.28125 1031.71191406 l 1
 964.600585938 1031.71191406 l 1
 534.51953125 -147.936523438 l 2
 488.633789062 -257.78515625 409.546875 -442.84765625 227.3203125 -442.84765625 c 2
 55.2890625 -442.84765625 l 1
 104.440429688 -295.392578125 l 1
 227.3203125 -295.392578125 l 2
 276.471679688 -295.392578125 325.624023438 -221.6640625 350.200195312 -147.936523438 c 2
 410.171875 3.6337890625 l 1
 43 1031.71191406 l 1
EndSplineSet
EndChar

StartChar: z
Encoding: 122 122 51
Width: 977
VWidth: 2457
Flags: HW
HStem: -0.480469 172.032<340.76 881.433> 859.681 172.031<95 635.672>
LayerCount: 2
Fore
SplineSet
95 859.680664062 m 1
 95 1031.71191406 l 1
 881.432617188 1031.71191406 l 1
 881.432617188 908.83203125 l 1
 340.759765625 171.551757812 l 1
 881.432617188 171.551757812 l 1
 881.432617188 -0.48046875 l 1
 95 -0.48046875 l 1
 95 122.400390625 l 1
 635.671875 859.680664062 l 1
 95 859.680664062 l 1
EndSplineSet
EndChar

StartChar: comma
Encoding: 44 44 52
Width: 465
VWidth: 2948
Flags: HW
HStem: -265.997 501.292
VStem: 193.965 176.947<-96.6233 87.8975>
LayerCount: 2
Fore
SplineSet
193.96484375 235.294921875 m 1
 370.912109375 235.294921875 l 1
 370.912109375 239.782226562 370.912109375 87.8974609375 370.912109375 87.8974609375 c 2
 370.912109375 -207.013671875 134.982421875 -265.997070312 134.982421875 -265.997070312 c 1
 76 -177.5234375 l 1
 76 -177.5234375 193.96484375 -118.541015625 193.96484375 87.8974609375 c 2
 193.96484375 87.8974609375 193.96484375 239.782226562 193.96484375 235.294921875 c 1
EndSplineSet
EndChar

StartChar: period
Encoding: 46 46 54
Width: 367
VWidth: 2457
Flags: HW
HStem: -0.367188 196.446<100 272.032>
VStem: 100 172.032
LayerCount: 2
Fore
SplineSet
100 196.079101562 m 1
 272.032226562 196.079101562 l 1
 272.032226562 199.818359375 272.032226562 -5.98046875 272.032226562 -0.3671875 c 1
 100 -0.3671875 l 1
 100 -5.98046875 100 199.818359375 100 196.079101562 c 1
EndSplineSet
EndChar

StartChar: exclam
Encoding: 33 33 55
Width: 398
VWidth: 2457
Flags: HW
HStem: -0.367188 196.446<113.001 285.033>
VStem: 113.001 172.032
LayerCount: 2
Fore
SplineSet
113 196.079101562 m 5
 285.032226562 196.079101562 l 5
 285.032226562 199.818359375 285.032226562 -5.98046875 285.032226562 -0.3671875 c 5
 113 -0.3671875 l 5
 113 -5.98046875 113 199.818359375 113 196.079101562 c 5
113 1473.81445312 m 5
 285.032226562 1473.81445312 l 5
 285.032226562 1493.45996094 285.032226562 413.010742188 285.032226562 442.477539062 c 5
 113 442.477539062 l 5
 113 413.010742188 113 1493.45996094 113 1473.81445312 c 5
EndSplineSet
EndChar

StartChar: dollar
Encoding: 36 36 56
Width: 1221
VWidth: 2457
Flags: HW
HStem: 1.05859 147.171<383.266 529.519 676.976 887.187> 1322.21 149.324<380.449 529.519 676.976 822.242>
VStem: 87.152 172.032<946.074 1214.84> 529.519 147.457<-147.937 1.05859 152.226 649.394 825.141 1321.87 1468.67 1621.54> 996.46 172.032<240.41 520.971>
LayerCount: 2
Fore
SplineSet
529.51953125 1621.53613281 m 1
 676.9765625 1621.53613281 l 1
 676.9765625 1471.32324219 l 1
 989.618164062 1447.51855469 1119.34472656 1277.47167969 1119.34472656 1277.47167969 c 1
 1021.04101562 1130.015625 l 1
 1021.04101562 1130.015625 905.896484375 1291.86328125 676.9765625 1321.87109375 c 1
 676.9765625 798.849609375 l 2
 861.251953125 769.038085938 1168.49609375 701.876953125 1168.49609375 392.736328125 c 0
 1168.49609375 186.484375 1084.27929688 18.73828125 676.9765625 1.05859375 c 1
 676.9765625 -147.936523438 l 1
 529.51953125 -147.936523438 l 1
 529.51953125 2.3125 l 1
 215.596679688 26.25390625 38 196.12890625 38 196.12890625 c 1
 136.3046875 343.583984375 l 1
 136.3046875 343.583984375 307.328125 183.475585938 529.51953125 152.225585938 c 1
 529.51953125 676.219726562 l 2
 367.8203125 706.247070312 87.15234375 779.473632812 87.15234375 1080.86328125 c 0
 87.15234375 1176.98046875 127.401367188 1442.671875 529.51953125 1471.52929688 c 1
 529.51953125 1621.53613281 l 1
529.51953125 1322.20507812 m 1
 394.575195312 1305.70507812 259.184570312 1240.29394531 259.184570312 1080.86328125 c 0
 259.184570312 920.942382812 392.684570312 857.143554688 529.51953125 825.140625 c 1
 529.51953125 1322.20507812 l 1
676.9765625 649.393554688 m 1
 676.9765625 148.229492188 l 1
 871.096679688 155.65625 996.463867188 200.331054688 996.463867188 392.736328125 c 0
 996.463867188 571.973632812 811.181640625 623.313476562 676.9765625 649.393554688 c 1
EndSplineSet
EndChar

StartChar: numbersign
Encoding: 35 35 57
Width: 1221
VWidth: 2457
Flags: HW
HStem: -0.480469 21G<149.304 325.336 591.672 767.704> 392.736 147.456<51 227.947 429.47 670.314 871.839 1107.77> 982.56 147.456<124.729 345.912 547.436 788.28 989.8 1181.5> 1454.08 20G<440.216 616.248 882.584 1058.62>
LayerCount: 2
Fore
SplineSet
149.303710938 -0.48046875 m 1
 227.947265625 392.736328125 l 1
 51 392.736328125 l 1
 51 540.192382812 l 1
 257.438476562 540.192382812 l 1
 345.912109375 982.559570312 l 1
 124.728515625 982.559570312 l 1
 124.728515625 1130.015625 l 1
 375.403320312 1130.015625 l 1
 444.215820312 1474.08007812 l 1
 616.248046875 1474.08007812 l 1
 547.435546875 1130.015625 l 1
 817.770507812 1130.015625 l 1
 886.583984375 1474.08007812 l 1
 1058.61523438 1474.08007812 l 1
 989.802734375 1130.015625 l 1
 1181.49609375 1130.015625 l 1
 1181.49609375 982.559570312 l 1
 960.311523438 982.559570312 l 1
 871.838867188 540.192382812 l 1
 1107.76757812 540.192382812 l 1
 1107.76757812 392.736328125 l 1
 842.34765625 392.736328125 l 1
 763.704101562 -0.48046875 l 1
 591.671875 -0.48046875 l 1
 670.314453125 392.736328125 l 1
 399.979492188 392.736328125 l 1
 321.3359375 -0.48046875 l 1
 149.303710938 -0.48046875 l 1
429.469726562 540.192382812 m 1
 699.806640625 540.192382812 l 1
 788.280273438 982.559570312 l 1
 517.944335938 982.559570312 l 1
 429.469726562 540.192382812 l 1
EndSplineSet
EndChar

StartChar: percent
Encoding: 37 37 58
Width: 1536
VWidth: 2457
Flags: HW
HStem: -25.0557 147.456<1073.94 1261.9> -0.480469 21G<283.185 490.459> 515.615 147.456<1073.94 1261.9> 810.528 147.456<287.51 475.467> 1351.2 147.456<287.51 475.467> 1454.08 20G<1058.95 1266.22>
VStem: 62 172.032<1014.5 1294.68> 528.944 172.032<1014.5 1294.68> 848.433 172.031<178.921 459.095> 1315.38 172.031<178.921 459.095>
LayerCount: 2
Fore
SplineSet
848.432617188 319.0078125 m 0xb3c0
 848.432617188 540.192382812 971.311523438 663.071289062 1167.91992188 663.071289062 c 0
 1364.52832031 663.071289062 1487.40820312 540.192382812 1487.40820312 319.0078125 c 0
 1487.40820312 97.8232421875 1364.52832031 -25.0556640625 1167.91992188 -25.0556640625 c 0
 971.311523438 -25.0556640625 848.432617188 97.8232421875 848.432617188 319.0078125 c 0xb3c0
1167.91992188 515.615234375 m 0
 1094.19238281 515.615234375 1020.46386719 441.888671875 1020.46386719 319.0078125 c 0
 1020.46386719 196.12890625 1094.19238281 122.400390625 1167.91992188 122.400390625 c 0
 1241.6484375 122.400390625 1315.37695312 196.12890625 1315.37695312 319.0078125 c 0
 1315.37695312 441.888671875 1241.6484375 515.615234375 1167.91992188 515.615234375 c 0
62 1154.59179688 m 0
 62 1375.77636719 184.880859375 1498.65625 381.48828125 1498.65625 c 0x3bc0
 578.095703125 1498.65625 700.9765625 1375.77636719 700.9765625 1154.59179688 c 0
 700.9765625 933.408203125 578.095703125 810.528320312 381.48828125 810.528320312 c 0
 184.880859375 810.528320312 62 933.408203125 62 1154.59179688 c 0
381.48828125 1351.20019531 m 0
 307.759765625 1351.20019531 234.032226562 1277.47167969 234.032226562 1154.59179688 c 0
 234.032226562 1031.71191406 307.759765625 957.984375 381.48828125 957.984375 c 0
 455.215820312 957.984375 528.944335938 1031.71191406 528.944335938 1154.59179688 c 0
 528.944335938 1277.47167969 455.215820312 1351.20019531 381.48828125 1351.20019531 c 0
1266.22363281 1474.08007812 m 1x77c0
 479.791992188 -0.48046875 l 1
 283.184570312 -0.48046875 l 1
 1069.61523438 1474.08007812 l 1
 1266.22363281 1474.08007812 l 1x77c0
EndSplineSet
EndChar

StartChar: ampersand
Encoding: 38 38 59
Width: 1260
VWidth: 2457
Flags: HW
HStem: -25.0557 172.032<374.501 774.853> -0.480469 21G<1014.82 1228.65> 1326.62 172.033<438.861 691.332>
VStem: 49 172.032<274.652 497.274> 196.456 172.032<991.708 1257.2> 761.704 172.032<1027.17 1257.2> 1006 162.19<428.882 548.881>
LayerCount: 2
Fore
SplineSet
933.736328125 1130.015625 m 0xae
 933.736328125 967.961914062 775.623046875 849.520507812 608.345703125 743.8828125 c 1
 930.16796875 357.696289062 l 1
 972.71875 436.142578125 999.638671875 532.224609375 1006.00488281 638.49609375 c 1
 1168.1953125 540.192382812 l 2
 1148.75683594 416.5546875 1105.1875 308.061523438 1044.86914062 220.0546875 c 2
 1228.6484375 -0.48046875 l 1
 1032.04003906 -0.48046875 l 1x6e
 942.318359375 103.711914062 l 1
 848.4765625 21.318359375 734.3515625 -25.0556640625 614.248046875 -25.0556640625 c 0
 312.782226562 -25.0556640625 49 125.127929688 49 392.736328125 c 0xb6
 49 551.978515625 201.666015625 669.103515625 365.682617188 773.354492188 c 1
 270.184570312 884.255859375 l 2
 212.477539062 971.087890625 196.45703125 1026.41796875 196.456054688 1130.015625 c 0
 196.456054688 1336.45410156 343.912109375 1498.65625 565.095703125 1498.65625 c 0
 786.280273438 1498.65625 933.736328125 1336.45410156 933.736328125 1130.015625 c 0xae
221.032226562 392.736328125 m 0xb6
 221.032226562 239.814453125 388.1484375 146.9765625 614.248046875 146.9765625 c 0
 696.291992188 146.9765625 770.576171875 177.897460938 831.922851562 231.915039062 c 2
 466.684570312 656.0625 l 2
 332.177734375 571.506835938 221.032226562 489.786132812 221.032226562 392.736328125 c 0xb6
761.704101562 1130.015625 m 0
 761.704101562 1233.23535156 687.9765625 1326.62304688 565.095703125 1326.62304688 c 0
 442.215820312 1326.62304688 368.48828125 1233.23535156 368.48828125 1130.015625 c 0x2e
 368.48828125 1057.78710938 393.063476562 1007.13671875 491.3671875 884.255859375 c 2
 509.454101562 862.55078125 l 2
 646.904296875 948.581054688 761.704101562 1031.3828125 761.704101562 1130.015625 c 0
EndSplineSet
EndChar

StartChar: parenleft
Encoding: 40 40 60
Width: 549
VWidth: 2457
Flags: HW
VStem: 68 172.032<293.678 1081.62>
LayerCount: 2
Fore
SplineSet
68 687.6484375 m 0
 68 1424.92871094 461.215820312 1670.68847656 461.215820312 1670.68847656 c 1
 510.368164062 1572.38476562 l 1
 510.368164062 1572.38476562 240.032226562 1302.04785156 240.032226562 687.6484375 c 0
 240.032226562 73.248046875 510.368164062 -197.087890625 510.368164062 -197.087890625 c 1
 461.215820312 -295.392578125 l 1
 461.215820312 -295.392578125 68 -49.6328125 68 687.6484375 c 0
EndSplineSet
EndChar

StartChar: parenright
Encoding: 41 41 61
Width: 550
VWidth: 2457
Flags: HW
VStem: 313.335 172.031<293.678 1081.62>
LayerCount: 2
Fore
SplineSet
485.3671875 687.6484375 m 0
 485.3671875 -49.6328125 92.1513671875 -295.392578125 92.1513671875 -295.392578125 c 1
 43 -197.087890625 l 1
 43 -197.087890625 313.3359375 73.248046875 313.3359375 687.6484375 c 0
 313.3359375 1302.04785156 43 1572.38476562 43 1572.38476562 c 1
 92.1513671875 1670.68847656 l 1
 92.1513671875 1670.68847656 485.3671875 1424.92871094 485.3671875 687.6484375 c 0
EndSplineSet
EndChar

StartChar: slash
Encoding: 47 47 62
Width: 753
VWidth: 2457
Flags: HW
LayerCount: 2
Fore
SplineSet
716.127929688 1572.38476562 m 1
 224.607421875 -197.087890625 l 1
 28 -197.087890625 l 1
 519.51953125 1572.38476562 l 1
 716.127929688 1572.38476562 l 1
EndSplineSet
EndChar

StartChar: braceleft
Encoding: 123 123 63
Width: 609
VWidth: 2457
Flags: HW
HStem: -295.393 147.456<440.106 530.52> 638.496 147.456<38.9998 184.202> 1572.38 147.455<440.106 530.52>
VStem: 235.608 172.032<-117.129 586.512 837.936 1541.58>
LayerCount: 2
Fore
SplineSet
235.607421875 1424.92871094 m 2
 235.607421875 1547.80761719 284.759765625 1719.83984375 505.944335938 1719.83984375 c 2
 579.670898438 1719.83984375 l 1
 530.51953125 1572.38476562 l 1
 505.944335938 1572.38476562 l 2
 456.791992188 1572.38476562 407.639648438 1498.65625 407.639648438 1424.92871094 c 2
 407.639648438 884.255859375 l 2
 407.639648438 835.103515625 358.48828125 712.223632812 211.032226562 712.223632812 c 1
 358.48828125 712.223632812 407.639648438 589.34375 407.639648438 540.192382812 c 2
 407.639648438 -0.48046875 l 2
 407.639648438 -74.2080078125 456.791992188 -147.936523438 505.944335938 -147.936523438 c 2
 530.51953125 -147.936523438 l 1
 579.670898438 -295.392578125 l 1
 505.944335938 -295.392578125 l 2
 284.759765625 -295.392578125 235.607421875 -123.359375 235.607421875 -0.48046875 c 2
 235.607421875 -0.48046875 235.607421875 392.736328125 235.607421875 491.040039062 c 0
 235.607421875 589.34375 137.303710938 638.49609375 39 638.49609375 c 1
 39 712.223632812 l 1
 39 785.952148438 l 1
 137.303710938 785.952148438 235.607421875 835.103515625 235.607421875 933.408203125 c 0
 235.607421875 1031.71191406 235.607421875 1424.92871094 235.607421875 1424.92871094 c 2
EndSplineSet
EndChar

StartChar: braceright
Encoding: 125 125 64
Width: 609
VWidth: 2457
Flags: HW
HStem: -295.393 147.456<78.151 168.566> 638.496 147.456<424.469 569.67> 1572.38 147.455<78.151 168.566>
VStem: 201.032 172.031<-117.129 586.512 837.936 1541.58>
LayerCount: 2
Fore
SplineSet
373.063476562 1424.92871094 m 2
 373.063476562 1424.92871094 373.063476562 1031.71191406 373.063476562 933.408203125 c 0
 373.063476562 835.103515625 471.3671875 785.952148438 569.670898438 785.952148438 c 1
 569.670898438 712.223632812 l 1
 569.670898438 638.49609375 l 1
 471.3671875 638.49609375 373.063476562 589.34375 373.063476562 491.040039062 c 0
 373.063476562 392.736328125 373.063476562 -0.48046875 373.063476562 -0.48046875 c 2
 373.063476562 -123.359375 323.911132812 -295.392578125 102.728515625 -295.392578125 c 2
 29 -295.392578125 l 1
 78.1513671875 -147.936523438 l 1
 102.728515625 -147.936523438 l 2
 151.879882812 -147.936523438 201.032226562 -74.2080078125 201.032226562 -0.48046875 c 2
 201.032226562 540.192382812 l 2
 201.032226562 589.34375 250.18359375 712.223632812 397.639648438 712.223632812 c 1
 250.18359375 712.223632812 201.032226562 835.103515625 201.032226562 884.255859375 c 2
 201.032226562 1424.92871094 l 2
 201.032226562 1498.65625 151.879882812 1572.38476562 102.728515625 1572.38476562 c 2
 78.1513671875 1572.38476562 l 1
 29 1719.83984375 l 1
 102.728515625 1719.83984375 l 2
 323.911132812 1719.83984375 373.063476562 1547.80761719 373.063476562 1424.92871094 c 2
EndSplineSet
EndChar

StartChar: bracketleft
Encoding: 91 91 65
Width: 610
VWidth: 2457
Flags: HW
HStem: -295.393 147.456<298.032 568.367> 1572.38 147.455<298.032 568.367>
VStem: 125.999 442.367<-295.393 -147.937 1572.38 1719.84> 125.999 172.032<-147.937 1572.38>
LayerCount: 2
Fore
SplineSet
126 1719.83984375 m 1xe0
 568.3671875 1719.83984375 l 1
 568.3671875 1572.38476562 l 1xe0
 298.032226562 1572.38476562 l 1
 298.032226562 -147.936523438 l 1xd0
 568.3671875 -147.936523438 l 1
 568.3671875 -295.392578125 l 1
 126 -295.392578125 l 1
 126 1719.83984375 l 1xe0
EndSplineSet
EndChar

StartChar: bracketright
Encoding: 93 93 66
Width: 608
VWidth: 2457
Flags: HW
HStem: -295.393 147.456<41.9999 312.336> 1572.38 147.455<41.9999 312.336>
VStem: 41.9999 442.367<-295.393 -147.937 1572.38 1719.84> 312.336 172.031<-147.937 1572.38>
LayerCount: 2
Fore
SplineSet
484.3671875 1719.83984375 m 1xe0
 484.3671875 -295.392578125 l 1
 42 -295.392578125 l 1
 42 -147.936523438 l 1xe0
 312.3359375 -147.936523438 l 1
 312.3359375 1572.38476562 l 1xd0
 42 1572.38476562 l 1
 42 1719.83984375 l 1
 484.3671875 1719.83984375 l 1xe0
EndSplineSet
EndChar

StartChar: question
Encoding: 63 63 67
Width: 941
VWidth: 2457
Flags: HW
HStem: -0.367188 196.446<385.063 557.096> 1326.62 172.033<304.834 620.931>
VStem: 387.759 172.03<-0.477073 196.079 368.16 650.355> 704.552 172.032<924.807 1243.08>
LayerCount: 2
Fore
SplineSet
385.063476562 196.079101562 m 1
 557.095703125 196.079101562 l 1
 557.095703125 199.818359375 557.095703125 -5.98046875 557.095703125 -0.3671875 c 1
 385.063476562 -0.3671875 l 1
 385.063476562 -5.98046875 385.063476562 199.818359375 385.063476562 196.079101562 c 1
559.7890625 368.16015625 m 1
 387.758789062 368.16015625 l 1
 387.758789062 589.34375 l 2
 387.758789062 699.936523438 470.702148438 755.232421875 553.646484375 810.528320312 c 0
 636.588867188 865.823242188 704.551757812 970.271484375 704.551757812 1080.86328125 c 0
 704.551757812 1228.31933594 643.111328125 1326.62304688 458.791992188 1326.62304688 c 0
 294.69140625 1326.62304688 191.150390625 1203.74414062 166.573242188 1080.86328125 c 1
 41 1179.16796875 l 1
 104.705078125 1383.14453125 296.036132812 1498.65625 461.487304688 1498.65625 c 0
 682.669921875 1498.65625 876.583984375 1375.77636719 876.583984375 1080.86328125 c 0
 876.583984375 897.959960938 776.235351562 765.16015625 679.297851562 701.62109375 c 0
 670.916992188 696.130859375 662.522460938 690.7890625 654.284179688 685.544921875 c 0
 604.154296875 653.64453125 559.7890625 625.416992188 559.7890625 589.34375 c 2
 559.7890625 368.16015625 l 1
EndSplineSet
EndChar

StartChar: quotedblleft
Encoding: 256 8220 68
Width: 692
VWidth: 2457
Flags: HW
HStem: 1154.68 417.74
VStem: 90 147.456<1277.5 1441.49> 384.912 147.455<1277.5 1441.49>
LayerCount: 2
Fore
SplineSet
237.456054688 1154.67578125 m 1
 90 1154.67578125 l 1
 90 1150.9296875 90 1277.50195312 90 1277.50195312 c 2
 90 1523.26269531 286.607421875 1572.41601562 286.607421875 1572.41601562 c 1
 335.759765625 1498.6875 l 1
 335.759765625 1498.6875 237.456054688 1449.53320312 237.456054688 1277.50195312 c 2
 237.456054688 1277.50195312 237.456054688 1150.9296875 237.456054688 1154.67578125 c 1
532.3671875 1154.67578125 m 1
 384.912109375 1154.67578125 l 1
 384.912109375 1150.9296875 384.912109375 1277.50195312 384.912109375 1277.50195312 c 2
 384.912109375 1523.26269531 581.51953125 1572.41601562 581.51953125 1572.41601562 c 1
 630.671875 1498.6875 l 1
 630.671875 1498.6875 532.3671875 1449.53320312 532.3671875 1277.50195312 c 2
 532.3671875 1277.50195312 532.3671875 1150.9296875 532.3671875 1154.67578125 c 1
EndSplineSet
EndChar

StartChar: quotedblright
Encoding: 181 8221 69
Width: 696
VWidth: 2457
Flags: HW
HStem: 1154.59 417.742
VStem: 169.304 147.456<1285.52 1449.5> 464.216 147.456<1285.52 1449.5>
LayerCount: 2
Fore
SplineSet
464.215820312 1572.33398438 m 1
 611.671875 1572.33398438 l 1
 611.671875 1576.07617188 611.671875 1449.50390625 611.671875 1449.50390625 c 2
 611.671875 1203.74414062 415.063476562 1154.59179688 415.063476562 1154.59179688 c 1
 365.912109375 1228.31933594 l 1
 365.912109375 1228.31933594 464.215820312 1277.47167969 464.215820312 1449.50390625 c 2
 464.215820312 1449.50390625 464.215820312 1576.07617188 464.215820312 1572.33398438 c 1
169.303710938 1572.33398438 m 1
 316.759765625 1572.33398438 l 1
 316.759765625 1576.07617188 316.759765625 1449.50390625 316.759765625 1449.50390625 c 2
 316.759765625 1203.74414062 120.15234375 1154.59179688 120.15234375 1154.59179688 c 1
 71 1228.31933594 l 1
 71 1228.31933594 169.303710938 1277.47167969 169.303710938 1449.50390625 c 2
 169.303710938 1449.50390625 169.303710938 1576.07617188 169.303710938 1572.33398438 c 1
EndSplineSet
EndChar

StartChar: quoteleft
Encoding: 257 8216 70
Width: 397
VWidth: 2457
Flags: HW
HStem: 1154.68 417.74
VStem: 90 147.456<1277.5 1441.49>
LayerCount: 2
Fore
SplineSet
237.456054688 1154.67578125 m 1
 90 1154.67578125 l 1
 90 1150.9296875 90 1277.50195312 90 1277.50195312 c 2
 90 1523.26269531 286.607421875 1572.41601562 286.607421875 1572.41601562 c 1
 335.759765625 1498.6875 l 1
 335.759765625 1498.6875 237.456054688 1449.53320312 237.456054688 1277.50195312 c 2
 237.456054688 1277.50195312 237.456054688 1150.9296875 237.456054688 1154.67578125 c 1
EndSplineSet
EndChar

StartChar: quoteright
Encoding: 258 8217 71
Width: 401
VWidth: 2457
Flags: HW
HStem: 1154.59 417.742
VStem: 169.304 147.456<1285.52 1449.5>
LayerCount: 2
Fore
SplineSet
169.303710938 1572.33398438 m 1
 316.759765625 1572.33398438 l 1
 316.759765625 1576.07617188 316.759765625 1449.50390625 316.759765625 1449.50390625 c 2
 316.759765625 1203.74414062 120.15234375 1154.59179688 120.15234375 1154.59179688 c 1
 71 1228.31933594 l 1
 71 1228.31933594 169.303710938 1277.47167969 169.303710938 1449.50390625 c 2
 169.303710938 1449.50390625 169.303710938 1576.07617188 169.303710938 1572.33398438 c 1
EndSplineSet
EndChar

StartChar: quotedbl
Encoding: 34 34 72
Width: 631
VWidth: 0
Flags: HW
HStem: 1179.17 393.166
VStem: 97 147.456<1179.24 1474.08> 391.912 147.455<1179.24 1474.08>
LayerCount: 2
Fore
SplineSet
97 1572.33398438 m 1
 244.456054688 1572.33398438 l 1
 244.456054688 1576.07617188 244.456054688 1474.08007812 244.456054688 1474.08007812 c 2
 244.456054688 1197.47167969 207.591796875 1039.16796875 207.591796875 1039.16796875 c 1
 133.86328125 1039.16796875 l 1
 133.86328125 1039.16796875 97 1197.47167969 97 1474.08007812 c 2
 97 1474.08007812 97 1576.07617188 97 1572.33398438 c 1
391.912109375 1572.33398438 m 1
 539.3671875 1572.33398438 l 1
 539.3671875 1576.07617188 539.3671875 1474.08007812 539.3671875 1474.08007812 c 2
 539.3671875 1197.47167969 502.50390625 1039.16796875 502.50390625 1039.16796875 c 1
 428.776367188 1039.16796875 l 1
 428.776367188 1039.16796875 391.912109375 1197.47167969 391.912109375 1474.08007812 c 2
 391.912109375 1474.08007812 391.912109375 1576.07617188 391.912109375 1572.33398438 c 1
EndSplineSet
EndChar

StartChar: quotesingle
Encoding: 39 39 73
Width: 336
VWidth: 2457
Flags: HW
HStem: 1039.17 533.166
VStem: 97 147.456<1039.28 1474.08>
LayerCount: 2
Fore
SplineSet
97 1572.33398438 m 1
 244.456054688 1572.33398438 l 1
 244.456054688 1576.07617188 244.456054688 1474.08007812 244.456054688 1474.08007812 c 2
 244.456054688 1197.47167969 207.591796875 1039.16796875 207.591796875 1039.16796875 c 1
 133.86328125 1039.16796875 l 1
 133.86328125 1039.16796875 97 1197.47167969 97 1474.08007812 c 2
 97 1474.08007812 97 1576.07617188 97 1572.33398438 c 1
EndSplineSet
EndChar

StartChar: semicolon
Encoding: 59 59 74
Width: 424
VWidth: 2457
Flags: HW
HStem: 835.218 196.444<155.016 327.048>
VStem: 167.304 147.456<-90.7364 73.248 73.3398 196.079 835.108 1031.66>
LayerCount: 2
Fore
SplineSet
167.303710938 196.079101562 m 1
 314.759765625 196.079101562 l 1
 314.759765625 199.818359375 314.759765625 73.248046875 314.759765625 73.248046875 c 2
 314.759765625 -172.51171875 118.15234375 -221.6640625 118.15234375 -221.6640625 c 1
 69 -147.936523438 l 1
 69 -147.936523438 167.303710938 -98.7841796875 167.303710938 73.248046875 c 2
 167.303710938 73.248046875 167.303710938 199.818359375 167.303710938 196.079101562 c 1
155.015625 1031.66210938 m 1
 327.047851562 1031.66210938 l 1
 327.047851562 1035.40332031 327.047851562 829.604492188 327.047851562 835.217773438 c 1
 155.015625 835.217773438 l 1
 155.015625 829.604492188 155.015625 1035.40332031 155.015625 1031.66210938 c 1
EndSplineSet
EndChar

StartChar: colon
Encoding: 58 58 75
Width: 383
VWidth: 2457
Flags: HW
HStem: -0.367188 196.446<108 280.032> 835.218 196.444<108 280.032>
VStem: 108 172.032
LayerCount: 2
Fore
SplineSet
108 196.079101562 m 1
 280.032226562 196.079101562 l 1
 280.032226562 199.818359375 280.032226562 -5.98046875 280.032226562 -0.3671875 c 1
 108 -0.3671875 l 1
 108 -5.98046875 108 199.818359375 108 196.079101562 c 1
108 1031.66210938 m 1
 280.032226562 1031.66210938 l 1
 280.032226562 1035.40332031 280.032226562 829.604492188 280.032226562 835.217773438 c 1
 108 835.217773438 l 1
 108 829.604492188 108 1035.40332031 108 1031.66210938 c 1
EndSplineSet
EndChar

StartChar: asterisk
Encoding: 42 42 76
Width: 817
VWidth: 2457
Flags: HW
HStem: 1454.08 20G<333.106 480.562>
VStem: 72.005 669.662
LayerCount: 2
Fore
SplineSet
480.5625 1474.08007812 m 1
 462.92578125 1227.16992188 l 1
 667.938476562 1365.89648438 l 1
 741.666992188 1238.19921875 l 1
 519.017578125 1130.015625 l 1
 741.666992188 1021.83300781 l 1
 667.938476562 894.135742188 l 1
 462.92578125 1032.86230469 l 1
 480.5625 785.952148438 l 1
 333.106445312 785.952148438 l 1
 350.7421875 1032.86230469 l 1
 145.732421875 894.135742188 l 1
 72.0048828125 1021.83300781 l 1
 294.651367188 1130.015625 l 1
 72 1238.19921875 l 1
 145.728515625 1365.89648438 l 1
 350.743164062 1227.16992188 l 1
 333.106445312 1474.08007812 l 1
 480.5625 1474.08007812 l 1
EndSplineSet
EndChar

StartChar: plus
Encoding: 43 43 77
Width: 1026
VWidth: 2457
Flags: HW
HStem: 454.177 172.031<97 428.776 600.808 932.584>
VStem: 428.776 172.031<122.4 454.177 626.208 957.984>
LayerCount: 2
Fore
SplineSet
428.776367188 957.984375 m 1
 600.807617188 957.984375 l 1
 600.807617188 626.208007812 l 1
 932.583984375 626.208007812 l 1
 932.583984375 454.176757812 l 1
 600.807617188 454.176757812 l 1
 600.807617188 122.400390625 l 1
 428.776367188 122.400390625 l 1
 428.776367188 454.176757812 l 1
 97 454.176757812 l 1
 97 626.208007812 l 1
 428.776367188 626.208007812 l 1
 428.776367188 957.984375 l 1
EndSplineSet
EndChar

StartChar: equal
Encoding: 61 61 78
Width: 1205
VWidth: 2457
Flags: HW
HStem: 159.264 172.032<112 1095.04> 650.784 172.031<112 1095.04>
LayerCount: 2
Fore
SplineSet
112 822.815429688 m 1
 1095.04003906 822.815429688 l 1
 1095.04003906 650.784179688 l 1
 112 650.784179688 l 1
 112 822.815429688 l 1
112 331.295898438 m 1
 1095.04003906 331.295898438 l 1
 1095.04003906 159.263671875 l 1
 112 159.263671875 l 1
 112 331.295898438 l 1
EndSplineSet
EndChar

StartChar: asciicircum
Encoding: 94 94 79
Width: 727
VWidth: 2457
Flags: HW
HStem: 933.408 540.672
VStem: 58 614.4
LayerCount: 2
Fore
SplineSet
58 982.559570312 m 1
 279.184570312 1474.08007812 l 1
 451.215820312 1474.08007812 l 1
 672.400390625 982.559570312 l 1
 549.51953125 933.408203125 l 1
 365.200195312 1302.04785156 l 1
 180.880859375 933.408203125 l 1
 58 982.559570312 l 1
EndSplineSet
EndChar

StartChar: hyphen
Encoding: 45 45 80
Width: 1069
VWidth: 2457
Flags: HW
HStem: 454.177 172.031<120 955.584>
LayerCount: 2
Fore
SplineSet
120 626.208007812 m 1
 955.583984375 626.208007812 l 1
 955.583984375 454.176757812 l 1
 120 454.176757812 l 1
 120 626.208007812 l 1
EndSplineSet
EndChar

StartChar: less
Encoding: 60 60 81
Width: 1149
VWidth: 2948
Flags: HW
LayerCount: 2
Fore
SplineSet
1019.88867188 1080.86328125 m 1
 1069.04003906 933.408203125 l 1
 264.734375 491.040039062 l 1
 1069.04003906 48.671875 l 1
 1019.88867188 -98.7841796875 l 1
 86 392.736328125 l 1
 86 589.34375 l 1
 1019.88867188 1080.86328125 l 1
EndSplineSet
EndChar

StartChar: greater
Encoding: 62 62 82
Width: 1149
VWidth: 2948
Flags: HW
LayerCount: 2
Fore
SplineSet
133.15234375 1080.86328125 m 1
 1067.04003906 589.34375 l 1
 1067.04003906 392.736328125 l 1
 133.15234375 -98.7841796875 l 1
 84 48.671875 l 1
 888.303710938 491.040039062 l 1
 84 933.408203125 l 1
 133.15234375 1080.86328125 l 1
EndSplineSet
EndChar

StartChar: underscore
Encoding: 95 95 83
Width: 1182
VWidth: 2457
Flags: HW
HStem: -184.8 172.032<100 1083.04>
LayerCount: 2
Fore
SplineSet
100 -12.767578125 m 1
 1083.04003906 -12.767578125 l 1
 1083.04003906 -184.799804688 l 1
 100 -184.799804688 l 1
 100 -12.767578125 l 1
EndSplineSet
EndChar

StartChar: bar
Encoding: 124 124 84
Width: 422
VWidth: 2457
Flags: HW
VStem: 126 172.032<-442.848 1916.45>
LayerCount: 2
Fore
SplineSet
298.032226562 1916.44824219 m 1
 298.032226562 -442.84765625 l 1
 126 -442.84765625 l 1
 126 1916.44824219 l 1
 298.032226562 1916.44824219 l 1
EndSplineSet
EndChar

StartChar: zero
Encoding: 48 48 85
Width: 1202
VWidth: 2457
Flags: HW
HStem: -25.0557 147.456<455.115 750.229> 1351.2 147.456<455.115 750.229>
VStem: 62 172.032<446.942 1026.66> 971.31 172.032<446.942 1026.66>
LayerCount: 2
Fore
SplineSet
62 736.799804688 m 0
 62 1056.28808594 209.456054688 1498.65625 602.671875 1498.65625 c 0
 995.888671875 1498.65625 1143.34375 1056.28808594 1143.34375 736.799804688 c 0
 1143.34375 417.311523438 995.888671875 -25.0556640625 602.671875 -25.0556640625 c 0
 209.456054688 -25.0556640625 62 417.311523438 62 736.799804688 c 0
602.671875 1351.20019531 m 0
 307.759765625 1351.20019531 234.032226562 933.408203125 234.032226562 736.799804688 c 0
 234.032226562 540.192382812 307.759765625 122.400390625 602.671875 122.400390625 c 0
 897.583984375 122.400390625 971.311523438 540.192382812 971.311523438 736.799804688 c 0
 971.311523438 933.408203125 897.583984375 1351.20019531 602.671875 1351.20019531 c 0
EndSplineSet
EndChar

StartChar: one
Encoding: 49 49 86
Width: 698
VWidth: 2457
Flags: HW
HStem: -0.480469 21G<411.641 583.672> 1454.08 20G<404.126 583.672>
VStem: 411.641 172.031<-0.480469 1277.47>
LayerCount: 2
Fore
SplineSet
411.640625 -0.48046875 m 1
 411.640625 1277.47167969 l 1
 92.15234375 1203.74414062 l 1
 43 1326.62304688 l 1
 460.791992188 1474.08007812 l 1
 583.671875 1474.08007812 l 1
 583.671875 -0.48046875 l 1
 411.640625 -0.48046875 l 1
EndSplineSet
EndChar

StartChar: two
Encoding: 50 50 87
Width: 1080
VWidth: 2457
Flags: HW
HStem: -0.480469 172.032<236.032 1022.46> 1326.62 172.033<361.741 701.406>
VStem: 64 172.032<171.552 348.135> 825.855 172.033<875.712 1200.7>
LayerCount: 2
Fore
SplineSet
1022.46386719 -0.48046875 m 1
 64 -0.48046875 l 1
 64 171.551757812 l 2
 64 392.736328125 186.880859375 572.4453125 506.3671875 712.223632812 c 0
 532.30078125 723.568359375 558.350585938 734.1796875 583.94921875 744.610351562 c 0
 737.540039062 807.185546875 825.85546875 863.1953125 825.85546875 1031.71191406 c 0
 825.85546875 1228.31933594 702.9765625 1326.62304688 530.944335938 1326.62304688 c 0
 373.901367188 1326.62304688 261.9140625 1244.70214844 239.30859375 1080.86328125 c 1
 80.95703125 1160.38671875 l 1
 140.556640625 1376.04101562 323.462890625 1498.65625 530.944335938 1498.65625 c 0
 776.704101562 1498.65625 997.888671875 1326.62304688 997.888671875 1031.71191406 c 0
 997.888671875 757.974609375 835.303710938 674.799804688 608.36328125 585.65234375 c 0
 590.811523438 578.755859375 573.166015625 571.826171875 555.51953125 564.767578125 c 0
 398.782226562 502.07421875 236.032226562 392.736328125 236.032226562 171.551757812 c 1
 1022.46386719 171.551757812 l 1
 1022.46386719 -0.48046875 l 1
EndSplineSet
EndChar

StartChar: three
Encoding: 51 51 88
Width: 1054
VWidth: 2457
Flags: HW
HStem: -25.0557 172.032<343.831 690.84> 663.071 147.457<315.336 639.142> 1326.62 172.033<335.565 651.158>
VStem: 757.704 172.032<918.138 1221.01> 831.433 172.031<272.44 551.179>
LayerCount: 2
Fore
SplineSet
757.704101562 1056.28808594 m 0xf0
 757.704101562 1252.89648438 634.823242188 1326.62304688 487.3671875 1326.62304688 c 0
 339.912109375 1326.62304688 241.607421875 1228.31933594 217.033203125 1105.44042969 c 1
 69.576171875 1179.16796875 l 2
 117.118164062 1357.49609375 290.759765625 1498.65625 487.3671875 1498.65625 c 0
 782.280273438 1498.65625 929.736328125 1302.04785156 929.736328125 1056.28808594 c 0xf0
 929.736328125 810.528320312 757.704101562 736.799804688 708.551757812 736.799804688 c 1
 733.12890625 736.799804688 l 2
 782.280273438 736.799804688 1003.46386719 687.6484375 1003.46386719 417.311523438 c 0
 1003.46386719 146.9765625 757.704101562 -25.0556640625 511.944335938 -25.0556640625 c 0
 297.842773438 -25.0556640625 86.99609375 111.434570312 45 319.0078125 c 1
 192.456054688 368.16015625 l 1
 241.607421875 196.12890625 421.387695312 146.9765625 511.944335938 146.9765625 c 0
 610.248046875 146.9765625 831.432617188 196.12890625 831.432617188 417.311523438 c 0xe8
 831.432617188 638.49609375 585.671875 663.071289062 487.3671875 663.071289062 c 2
 266.184570312 663.071289062 l 1
 315.3359375 810.528320312 l 1
 487.3671875 810.528320312 l 2
 561.095703125 810.528320312 757.704101562 859.680664062 757.704101562 1056.28808594 c 0xf0
EndSplineSet
EndChar

StartChar: four
Encoding: 52 52 89
Width: 1065
VWidth: 2457
Flags: HW
HStem: -0.480469 21G<686.977 859.008> 343.584 172.031<269.185 686.977 859.008 981.89> 1454.08 20G<674.294 859.008>
VStem: 686.977 172.031<-0.480469 343.584 515.615 1179.17>
LayerCount: 2
Fore
SplineSet
48 466.463867188 m 1
 686.9765625 1474.08007812 l 1
 859.0078125 1474.08007812 l 1
 859.0078125 515.615234375 l 1
 1031.04003906 515.615234375 l 1
 981.888671875 343.583984375 l 1
 859.0078125 343.583984375 l 1
 859.0078125 -0.48046875 l 1
 686.9765625 -0.48046875 l 1
 686.9765625 343.583984375 l 1
 48 343.583984375 l 1
 48 466.463867188 l 1
686.9765625 515.615234375 m 1
 686.9765625 1179.16796875 l 1
 269.184570312 515.615234375 l 1
 686.9765625 515.615234375 l 1
EndSplineSet
EndChar

StartChar: five
Encoding: 53 53 90
Width: 1113
VWidth: 2457
Flags: HW
HStem: -25.0557 172.032<413.345 730.867> 835.104 172.033<352.559 717.233> 1302.05 172.032<297.185 936.16>
VStem: 887.008 172.032<308.114 663.56>
LayerCount: 2
Fore
SplineSet
936.16015625 1302.04785156 m 1
 297.184570312 1302.04785156 l 1
 248.032226562 884.255859375 l 1
 248.032226562 884.255859375 346.3359375 1007.13671875 542.944335938 1007.13671875 c 0
 739.551757812 1007.13671875 1059.04003906 859.680664062 1059.04003906 491.040039062 c 0
 1059.04003906 122.400390625 803.280273438 -25.0556640625 557.51953125 -25.0556640625 c 0
 353.765625 -25.0556640625 119.69921875 151.557617188 56 343.583984375 c 1
 203.456054688 417.311523438 l 1
 242.403320312 294.432617188 386.084960938 146.9765625 557.51953125 146.9765625 c 0
 754.12890625 146.9765625 887.0078125 294.432617188 887.0078125 491.040039062 c 0
 887.0078125 687.6484375 739.551757812 835.103515625 542.944335938 835.103515625 c 0
 297.184570312 835.103515625 223.456054688 663.071289062 223.456054688 663.071289062 c 1
 76 712.223632812 l 1
 149.728515625 1474.08007812 l 1
 985.311523438 1474.08007812 l 1
 936.16015625 1302.04785156 l 1
EndSplineSet
EndChar

StartChar: six
Encoding: 54 54 91
Width: 1164
VWidth: 2457
Flags: HW
HStem: -25.0557 147.456<450.051 766.057> 810.528 147.456<438.996 776.474> 1326.62 172.033<442.123 805.082>
VStem: 65 172.032<687.648 1067.95> 925.16 172.032<304.47 491.04>
LayerCount: 2
Fore
SplineSet
630.248046875 1498.65625 m 0
 830.84765625 1498.65625 992.060546875 1383.52734375 1077.79199219 1228.31933594 c 2
 944.32421875 1130.015625 l 1
 888.493164062 1253.31933594 772.995117188 1326.62304688 630.248046875 1326.62304688 c 0
 269.478515625 1326.62304688 237.032226562 1007.13671875 237.032226562 687.6484375 c 1
 286.184570312 835.103515625 433.640625 957.984375 630.248046875 957.984375 c 0
 925.16015625 957.984375 1097.19238281 697.05078125 1097.19238281 475.8671875 c 0
 1097.19238281 303.833984375 998.888671875 -25.0556640625 605.671875 -25.0556640625 c 0
 212.456054688 -25.0556640625 65 368.16015625 65 687.6484375 c 0
 65 1007.13671875 138.728515625 1498.65625 630.248046875 1498.65625 c 0
925.16015625 491.040039062 m 2
 925.16015625 491.040039062 925.16015625 810.528320312 605.671875 810.528320312 c 0
 430.5859375 810.528320312 344.0703125 710.021484375 301.630859375 619.169921875 c 0
 259.688476562 529.377929688 267.401367188 424.252929688 309.284179688 334.436523438 c 0
 364.41015625 216.216796875 456.896484375 122.400390625 605.671875 122.400390625 c 0
 900.583984375 122.400390625 925.16015625 441.888671875 925.16015625 491.040039062 c 2
EndSplineSet
EndChar

StartChar: seven
Encoding: 55 55 92
Width: 1141
VWidth: 2457
Flags: HW
HStem: -0.480469 21G<203.456 410.245> 1302.05 172.032<56 867.008>
LayerCount: 2
Fore
SplineSet
203.456054688 -0.48046875 m 1
 867.0078125 1302.04785156 l 1
 56 1302.04785156 l 1
 56 1474.08007812 l 1
 1088.19238281 1474.08007812 l 1
 1088.19238281 1351.20019531 l 1
 400.063476562 -0.48046875 l 1
 203.456054688 -0.48046875 l 1
EndSplineSet
EndChar

StartChar: eight
Encoding: 56 56 93
Width: 1147
VWidth: 2457
Flags: HW
HStem: -25.0557 172.032<392.724 755.468> 712.224 147.457<279.185 869.008> 1326.62 172.033<405.111 743.081>
VStem: 58 172.032<293.556 563.295> 107.152 172.032<971.378 1214.53> 869.008 172.032<971.378 1214.53> 918.16 172.032<295.416 562.482>
LayerCount: 2
Fore
SplineSet
58 417.311523438 m 0xf2
 58 638.49609375 279.184570312 859.680664062 574.095703125 859.680664062 c 0
 869.0078125 859.680664062 1090.19238281 687.6484375 1090.19238281 417.311523438 c 0
 1090.19238281 146.9765625 869.0078125 -25.0556640625 574.095703125 -25.0556640625 c 0
 279.184570312 -25.0556640625 58 196.12890625 58 417.311523438 c 0xf2
574.095703125 712.223632812 m 0
 377.48828125 712.223632812 230.032226562 577.055664062 230.032226562 429.599609375 c 0
 230.032226562 282.14453125 377.48828125 146.9765625 574.095703125 146.9765625 c 0
 770.704101562 146.9765625 918.16015625 282.14453125 918.16015625 429.599609375 c 0
 918.16015625 577.055664062 770.704101562 712.223632812 574.095703125 712.223632812 c 0
107.15234375 1105.44042969 m 0xec
 107.15234375 1277.47167969 279.184570312 1498.65625 574.095703125 1498.65625 c 0
 869.0078125 1498.65625 1041.04003906 1277.47167969 1041.04003906 1105.44042969 c 0
 1041.04003906 933.408203125 869.0078125 712.223632812 574.095703125 712.223632812 c 0
 279.184570312 712.223632812 107.15234375 933.408203125 107.15234375 1105.44042969 c 0xec
574.095703125 859.680664062 m 0
 770.704101562 859.680664062 869.0078125 994.84765625 869.0078125 1093.15234375 c 0
 869.0078125 1191.45605469 770.704101562 1326.62304688 574.095703125 1326.62304688 c 0
 377.48828125 1326.62304688 279.184570312 1191.45605469 279.184570312 1093.15234375 c 0
 279.184570312 994.84765625 377.48828125 859.680664062 574.095703125 859.680664062 c 0
EndSplineSet
EndChar

StartChar: nine
Encoding: 57 57 94
Width: 1154
VWidth: 2457
Flags: HW
HStem: -25.0557 172.032<352.11 715.07> 515.615 147.456<380.718 718.196> 1351.2 147.456<391.134 707.142>
VStem: 60 172.032<982.56 1169.13> 920.16 172.032<405.648 785.952>
LayerCount: 2
Fore
SplineSet
526.944335938 -25.0556640625 m 0
 326.344726562 -25.0556640625 165.12890625 90.072265625 79.3984375 245.280273438 c 2
 212.869140625 343.583984375 l 1
 268.697265625 220.28125 384.19921875 146.9765625 526.944335938 146.9765625 c 0
 887.71484375 146.9765625 920.16015625 466.463867188 920.16015625 785.952148438 c 1
 871.0078125 638.49609375 723.551757812 515.615234375 526.944335938 515.615234375 c 0
 232.032226562 515.615234375 60 776.548828125 60 997.733398438 c 0
 60 1169.765625 158.303710938 1498.65625 551.51953125 1498.65625 c 0
 944.736328125 1498.65625 1092.19238281 1105.44042969 1092.19238281 785.952148438 c 0
 1092.19238281 466.463867188 1018.46386719 -25.0556640625 526.944335938 -25.0556640625 c 0
232.032226562 982.559570312 m 2
 232.032226562 982.559570312 232.032226562 663.071289062 551.51953125 663.071289062 c 0
 726.604492188 663.071289062 813.122070312 763.578125 855.55859375 854.430664062 c 0
 897.505859375 944.221679688 889.7890625 1049.34765625 847.90625 1139.16308594 c 0
 792.783203125 1257.3828125 700.298828125 1351.20019531 551.51953125 1351.20019531 c 0
 256.607421875 1351.20019531 232.032226562 1031.71191406 232.032226562 982.559570312 c 2
EndSplineSet
EndChar

StartChar: asciitilde
Encoding: 126 126 95
Width: 1207
VWidth: 2457
Flags: HW
HStem: 736.8 221.185<680.966 944.686> 884.256 221.185<279.45 551.225>
LayerCount: 2
Fore
SplineSet
1107.61523438 1080.86328125 m 5x80
 1107.61523438 859.680664062 l 5
 1107.61523438 859.680664062 930.3203125 736.799804688 788.12890625 736.799804688 c 4x80
 645.936523438 736.799804688 538.856445312 884.255859375 444.063476562 884.255859375 c 4
 349.270507812 884.255859375 100 761.376953125 100 761.376953125 c 5
 100 982.559570312 l 5
 100 982.559570312 301.874023438 1105.44042969 444.063476562 1105.44042969 c 4x40
 586.25390625 1105.44042969 693.333007812 957.984375 788.12890625 957.984375 c 4
 882.922851562 957.984375 1107.61523438 1080.86328125 1107.61523438 1080.86328125 c 5x80
EndSplineSet
EndChar

StartChar: grave
Encoding: 96 96 96
Width: 489
VWidth: 2457
Flags: HW
HStem: 1228.32 344.065
VStem: 66 344.063
LayerCount: 2
Fore
SplineSet
262.607421875 1228.31933594 m 5
 66 1572.38476562 l 5
 262.607421875 1572.38476562 l 5
 410.063476562 1228.31933594 l 5
 262.607421875 1228.31933594 l 5
EndSplineSet
EndChar

StartChar: at
Encoding: 64 64 97
Width: 1837
VWidth: 2457
Flags: HW
HStem: -393.696 147.456<668.538 1239> -25.0557 147.456<755.976 1035.36 1386.72 1531.28> 908.832 147.456<755.976 1035.36> 1011.71 20G<1234.65 1362.53> 1302.05 147.456<691.847 1193.67>
VStem: 60 147.455<239.791 800.426> 428.64 172.031<303.579 727.653> 1190.5 49.1514<245.28 785.952> 1239.65 122.881<974.367 1031.71> 1632.86 147.456<278.027 836.807>
LayerCount: 2
Fore
SplineSet
1362.52832031 1031.71191406 m 1xdec0
 1362.52832031 245.280273438 l 2xdec0
 1362.52832031 185.029296875 1399.39160156 122.400390625 1460.83203125 122.400390625 c 0
 1522.27148438 122.400390625 1632.86328125 245.280273438 1632.86328125 589.34375 c 0
 1632.86328125 920.72265625 1405.53613281 1302.04785156 944.736328125 1302.04785156 c 0
 483.935546875 1302.04785156 207.455078125 931.8203125 207.455078125 540.192382812 c 0
 207.455078125 148.563476562 404.063476562 -246.240234375 944.736328125 -246.240234375 c 0
 1190.49609375 -246.240234375 1387.10351562 -147.936523438 1387.10351562 -147.936523438 c 1
 1436.25585938 -270.815429688 l 1
 1436.25585938 -270.815429688 1251.93554688 -393.696289062 944.736328125 -393.696289062 c 0
 268.895507812 -393.696289062 60 88.3134765625 60 540.192382812 c 0
 60 893.766601562 299.615234375 1449.50390625 944.736328125 1449.50390625 c 0
 1589.85546875 1449.50390625 1780.31933594 890.596679688 1780.31933594 589.34375 c 0
 1780.31933594 189.787109375 1657.43945312 -25.0556640625 1460.83203125 -25.0556640625 c 0
 1215.07128906 -25.0556640625 1190.49609375 153.31640625 1190.49609375 245.280273438 c 2
 1190.49609375 835.103515625 l 1xdf40
 1239.64746094 1031.71191406 l 1
 1362.52832031 1031.71191406 l 1xdec0
428.639648438 515.615234375 m 0
 428.639648438 785.952148438 600.670898438 1056.28808594 895.583984375 1056.28808594 c 0
 1190.49609375 1056.28808594 1239.64746094 785.952148438 1239.64746094 515.615234375 c 0xef40
 1239.64746094 245.280273438 1190.49609375 -25.0556640625 895.583984375 -25.0556640625 c 0
 600.670898438 -25.0556640625 428.639648438 245.280273438 428.639648438 515.615234375 c 0
895.583984375 908.83203125 m 0
 723.551757812 908.83203125 600.670898438 736.799804688 600.670898438 515.615234375 c 0
 600.670898438 294.432617188 723.551757812 122.400390625 895.583984375 122.400390625 c 0
 1067.61523438 122.400390625 1190.49609375 294.432617188 1190.49609375 515.615234375 c 0
 1190.49609375 736.799804688 1067.61523438 908.83203125 895.583984375 908.83203125 c 0
EndSplineSet
EndChar

StartChar: dieresis
Encoding: 259 168 99
Width: 731
VWidth: 2457
Flags: HW
LayerCount: 2
Fore
SplineSet
92 1375.72753906 m 5
 264.032226562 1375.72753906 l 5
 264.032226562 1379.46679688 264.032226562 1173.66796875 264.032226562 1179.28125 c 5
 92 1179.28125 l 5
 92 1173.66796875 92 1379.46679688 92 1375.72753906 c 5
460.640625 1375.72753906 m 5
 632.671875 1375.72753906 l 5
 632.671875 1379.46679688 632.671875 1173.66796875 632.671875 1179.28125 c 5
 460.640625 1179.28125 l 5
 460.640625 1173.66796875 460.640625 1379.46679688 460.640625 1375.72753906 c 5
EndSplineSet
EndChar

StartChar: exclamdown
Encoding: 260 161 100
Width: 398
VWidth: 2457
Flags: HW
LayerCount: 2
Fore
SplineSet
287.032226562 1277.36816406 m 5
 115 1277.36816406 l 5
 115 1273.62890625 115 1479.42773438 115 1473.81445312 c 5
 287.032226562 1473.81445312 l 5
 287.032226562 1479.42773438 287.032226562 1273.62890625 287.032226562 1277.36816406 c 5
287.032226562 -0.3671875 m 5
 115 -0.3671875 l 5
 115 -20.0126953125 115 1060.43652344 115 1030.96972656 c 5
 287.032226562 1030.96972656 l 5
 287.032226562 1060.43652344 287.032226562 -20.0126953125 287.032226562 -0.3671875 c 5
EndSplineSet
EndChar

StartChar: sterling
Encoding: 261 163 101
Width: 1095
VWidth: 2457
Flags: HW
LayerCount: 2
Fore
SplineSet
211.456054688 417.311523438 m 2
 211.456054688 540.192382812 l 1
 64 540.192382812 l 1
 64 712.223632812 l 1
 211.456054688 712.223632812 l 1
 211.456054688 982.559570312 l 2
 211.456054688 1277.47167969 408.063476562 1498.65625 629.248046875 1498.65625 c 0
 794.698242188 1498.65625 983.333984375 1333.9921875 1047.04003906 1130.015625 c 1
 921.466796875 1031.71191406 l 1
 896.890625 1154.59179688 793.3515625 1326.62304688 629.248046875 1326.62304688 c 0
 444.928710938 1326.62304688 383.48828125 1130.015625 383.48828125 982.559570312 c 2
 383.48828125 712.223632812 l 1
 752.12890625 712.223632812 l 1
 752.12890625 540.192382812 l 1
 383.48828125 540.192382812 l 1
 383.48828125 417.311523438 l 2
 383.48828125 324.901367188 355.689453125 218.590820312 320.998046875 171.551757812 c 1
 997.888671875 171.551757812 l 1
 997.888671875 -0.48046875 l 1
 64 -0.48046875 l 1
 64 171.551757812 l 1
 113.15234375 171.551757812 l 2
 162.303710938 171.551757812 211.456054688 294.432617188 211.456054688 417.311523438 c 2
EndSplineSet
EndChar

StartChar: section
Encoding: 167 167 102
Width: 1047
VWidth: 2457
Flags: HW
LayerCount: 2
Fore
SplineSet
990.888671875 564.767578125 m 0
 990.888671875 511.728515625 978.693359375 364.920898438 813.115234375 300.655273438 c 1
 885.909179688 249.075195312 941.736328125 176.45703125 941.736328125 73.248046875 c 0
 941.736328125 -74.1875 872.102539062 -270.815429688 523.944335938 -270.815429688 c 0
 258.076171875 -270.815429688 106.15234375 -98.7841796875 106.15234375 -98.7841796875 c 1
 204.456054688 48.671875 l 1
 204.456054688 48.671875 334.038085938 -123.359375 523.944335938 -123.359375 c 0
 698.026367188 -123.359375 769.704101562 -29.8486328125 769.704101562 73.248046875 c 0
 769.704101562 176.34375 616.083984375 253.537109375 523.944335938 269.85546875 c 0
 520.357421875 270.490234375 516.491210938 271.159179688 512.372070312 271.87109375 c 0
 263.239257812 338.594726562 57 431.875976562 57 663.071289062 c 0
 57 716.111328125 69.197265625 862.919921875 234.771484375 927.185546875 c 1
 161.978515625 978.765625 106.15234375 1051.3828125 106.15234375 1154.59179688 c 0
 106.15234375 1302.02832031 175.783203125 1498.65625 523.944335938 1498.65625 c 0
 789.8125 1498.65625 941.736328125 1326.62304688 941.736328125 1326.62304688 c 1
 843.432617188 1179.16796875 l 1
 843.432617188 1179.16796875 713.84765625 1351.20019531 523.944335938 1351.20019531 c 0
 349.86328125 1351.20019531 278.184570312 1257.6875 278.184570312 1154.59179688 c 0
 278.184570312 1051.49511719 431.805664062 974.302734375 523.944335938 957.984375 c 0
 527.53125 957.350585938 531.397460938 956.681640625 535.516601562 955.96875 c 0
 784.646484375 889.244140625 990.888671875 795.96484375 990.888671875 564.767578125 c 0
588.795898438 400.103515625 m 0
 640.05078125 385.465820312 697.55859375 380.098632812 737.80859375 415.041015625 c 0
 787.919921875 458.541015625 818.85546875 522.72265625 818.85546875 564.767578125 c 0
 818.85546875 633.497070312 788.155273438 743.327148438 523.944335938 810.528320312 c 0
 522.684570312 810.84765625 521.40234375 811.171875 520.096679688 811.505859375 c 0
 503.060546875 815.8359375 482.23828125 821.125 459.091796875 827.736328125 c 0
 407.837890625 842.373046875 350.331054688 847.741210938 310.079101562 812.798828125 c 0
 259.969726562 769.299804688 229.032226562 705.1171875 229.032226562 663.071289062 c 0
 229.032226562 594.341796875 259.73046875 484.512695312 523.944335938 417.311523438 c 0
 525.203125 416.993164062 526.486328125 416.66796875 527.790039062 416.333984375 c 0
 544.827148438 412.002929688 565.650390625 406.71484375 588.795898438 400.103515625 c 0
EndSplineSet
EndChar

StartChar: copyright
Encoding: 169 169 103
Width: 1635
VWidth: 2457
Flags: HW
LayerCount: 2
Fore
SplineSet
229.032226562 736.799804688 m 0
 229.032226562 1062.59667969 493.059570312 1326.62304688 818.85546875 1326.62304688 c 0
 1144.65234375 1326.62304688 1408.68066406 1062.59667969 1408.68066406 736.799804688 c 0
 1408.68066406 411.00390625 1144.65234375 146.9765625 818.85546875 146.9765625 c 0
 493.059570312 146.9765625 229.032226562 411.00390625 229.032226562 736.799804688 c 0
57 736.799804688 m 0
 57 316.100585938 398.15625 -25.0556640625 818.85546875 -25.0556640625 c 0
 1239.55566406 -25.0556640625 1580.71191406 316.100585938 1580.71191406 736.799804688 c 0
 1580.71191406 1157.5 1239.55566406 1498.65625 818.85546875 1498.65625 c 0
 398.15625 1498.65625 57 1157.5 57 736.799804688 c 0
854.186523438 1179.16796875 m 0
 962.232421875 1179.16796875 1049.98339844 1118.17480469 1113.76757812 1052.99511719 c 2
 1040.04003906 933.408203125 l 1
 997.3125 992.243164062 928.288085938 1031.71191406 854.186523438 1031.71191406 c 0
 714.408203125 1031.71191406 614.5703125 917.767578125 614.5703125 736.799804688 c 0
 614.5703125 555.83203125 714.408203125 441.888671875 854.186523438 441.888671875 c 0
 928.288085938 441.888671875 997.3125 481.357421875 1040.04003906 540.192382812 c 1
 1113.76757812 420.604492188 l 2
 1049.98339844 355.424804688 962.232421875 294.432617188 854.186523438 294.432617188 c 0
 614.5703125 294.432617188 450.215820312 466.463867188 450.215820312 736.799804688 c 0
 450.215820312 1007.13671875 614.5703125 1179.16796875 854.186523438 1179.16796875 c 0
EndSplineSet
EndChar

StartChar: registered
Encoding: 262 174 104
Width: 1635
VWidth: 2457
Flags: HW
LayerCount: 2
Fore
SplineSet
229.032226562 736.799804688 m 0
 229.032226562 1062.59667969 493.059570312 1326.62304688 818.85546875 1326.62304688 c 0
 1144.65234375 1326.62304688 1408.68066406 1062.59667969 1408.68066406 736.799804688 c 0
 1408.68066406 411.00390625 1144.65234375 146.9765625 818.85546875 146.9765625 c 0
 493.059570312 146.9765625 229.032226562 411.00390625 229.032226562 736.799804688 c 0
57 736.799804688 m 0
 57 316.100585938 398.15625 -25.0556640625 818.85546875 -25.0556640625 c 0
 1239.55566406 -25.0556640625 1580.71191406 316.100585938 1580.71191406 736.799804688 c 0
 1580.71191406 1157.5 1239.55566406 1498.65625 818.85546875 1498.65625 c 0
 398.15625 1498.65625 57 1157.5 57 736.799804688 c 0
548.51953125 1154.59179688 m 1
 649.22265625 1154.59179688 l 1
 865.009765625 1154.59179688 l 2
 1008.86816406 1154.59179688 1138.34375 1035.80664062 1138.34375 896.543945312 c 0
 1138.34375 791.142578125 1047.69824219 701.6953125 953.71875 664.428710938 c 1
 1187.49609375 319.0078125 l 1
 1015.46386719 319.0078125 l 1
 790.3671875 645.868164062 l 1
 720.551757812 645.868164062 l 1
 720.551757812 319.0078125 l 1
 548.51953125 319.0078125 l 1
 548.51953125 1154.59179688 l 1
720.551757812 785.952148438 m 1
 815.858398438 785.952148438 l 1
 816.796875 785.952148438 l 2
 860.55078125 785.947265625 966.311523438 785.931640625 966.311523438 896.543945312 c 0
 966.311523438 1007.15039062 874.736328125 1007.140625 817.111328125 1007.13671875 c 2
 815.858398438 1007.13671875 l 1
 720.551757812 1007.13671875 l 1
 720.551757812 785.952148438 l 1
EndSplineSet
EndChar

StartChar: brokenbar
Encoding: 263 166 105
Width: 418
VWidth: 2457
Flags: HW
LayerCount: 2
Fore
SplineSet
296.032226562 1916.44824219 m 1
 296.032226562 884.255859375 l 1
 124 884.255859375 l 1
 124 1916.44824219 l 1
 296.032226562 1916.44824219 l 1
124 -442.84765625 m 1
 124 589.34375 l 1
 296.032226562 589.34375 l 1
 296.032226562 -442.84765625 l 1
 124 -442.84765625 l 1
EndSplineSet
EndChar

StartChar: acute
Encoding: 264 180 106
Width: 475
VWidth: 2457
Flags: HW
LayerCount: 2
Fore
SplineSet
221.456054688 1228.31933594 m 5
 74 1228.31933594 l 5
 221.456054688 1572.38476562 l 5
 418.063476562 1572.38476562 l 5
 221.456054688 1228.31933594 l 5
EndSplineSet
EndChar

StartChar: questiondown
Encoding: 265 191 107
Width: 924
VWidth: 2457
Flags: HW
LayerCount: 2
Fore
SplineSet
546.51953125 1302.09765625 m 1
 374.48828125 1302.09765625 l 1
 374.48828125 1298.35644531 374.48828125 1504.15625 374.48828125 1498.54296875 c 1
 546.51953125 1498.54296875 l 1
 546.51953125 1504.15625 546.51953125 1298.35644531 546.51953125 1302.09765625 c 1
371.79296875 1130.015625 m 1
 543.82421875 1130.015625 l 1
 543.82421875 908.83203125 l 2
 543.82421875 798.240234375 460.880859375 742.944335938 377.9375 687.6484375 c 0
 294.993164062 632.3515625 227.032226562 527.904296875 227.032226562 417.311523438 c 0
 227.032226562 269.85546875 288.471679688 171.551757812 472.791992188 171.551757812 c 0
 636.895507812 171.551757812 740.434570312 294.432617188 765.010742188 417.311523438 c 1
 890.583984375 319.0078125 l 1
 826.877929688 115.032226562 635.548828125 -0.48046875 470.096679688 -0.48046875 c 0
 248.912109375 -0.48046875 55 122.400390625 55 417.311523438 c 0
 55 600.216796875 155.34765625 733.014648438 252.286132812 796.553710938 c 0
 260.666015625 802.043945312 269.061523438 807.38671875 277.30078125 812.631835938 c 0
 327.430664062 844.53125 371.79296875 872.759765625 371.79296875 908.83203125 c 2
 371.79296875 1130.015625 l 1
EndSplineSet
EndChar

StartChar: NameMe.260
Encoding: 266 768 109
Width: 489
VWidth: 2457
Flags: HW
LayerCount: 2
Fore
SplineSet
262.607421875 1228.31933594 m 5
 66 1572.38476562 l 5
 262.607421875 1572.38476562 l 5
 410.063476562 1228.31933594 l 5
 262.607421875 1228.31933594 l 5
EndSplineSet
EndChar

StartChar: NameMe.261
Encoding: 267 769 110
Width: 475
VWidth: 2457
Flags: HW
LayerCount: 2
Fore
SplineSet
221.456054688 1228.31933594 m 5
 74 1228.31933594 l 5
 221.456054688 1572.38476562 l 5
 418.063476562 1572.38476562 l 5
 221.456054688 1228.31933594 l 5
EndSplineSet
EndChar

StartChar: NameMe.262
Encoding: 269 770 114
Width: 761
VWidth: 2457
Flags: HW
LayerCount: 2
Fore
SplineSet
70 1179.16796875 m 5
 291.184570312 1670.68847656 l 5
 463.215820312 1670.68847656 l 5
 684.400390625 1179.16796875 l 5
 561.51953125 1130.015625 l 5
 377.200195312 1498.65625 l 5
 192.880859375 1130.015625 l 5
 70 1179.16796875 l 5
EndSplineSet
EndChar

StartChar: NameMe.263
Encoding: 270 771 115
Width: 763
VWidth: 2948
Flags: HW
LayerCount: 2
Fore
SplineSet
679.82421875 1523.23242188 m 1
 679.82421875 1351.20019531 l 1
 679.82421875 1351.20019531 625.407226562 1228.31933594 522.365234375 1228.31933594 c 0
 409.48828125 1228.31933594 307.672851562 1375.77636719 234.2578125 1375.77636719 c 0
 167.239257812 1375.77636719 90 1252.89648438 90 1252.89648438 c 1
 90 1424.92871094 l 1
 90 1424.92871094 144.41796875 1547.80761719 247.458984375 1547.80761719 c 0
 360.3359375 1547.80761719 462.149414062 1400.3515625 535.56640625 1400.3515625 c 0
 602.5859375 1400.3515625 679.82421875 1523.23242188 679.82421875 1523.23242188 c 1
EndSplineSet
EndChar

StartChar: NameMe.264
Encoding: 271 776 116
Width: 731
VWidth: 2457
Flags: HW
LayerCount: 2
Fore
SplineSet
92 1375.72753906 m 5
 264.032226562 1375.72753906 l 5
 264.032226562 1379.46679688 264.032226562 1173.66796875 264.032226562 1179.28125 c 5
 92 1179.28125 l 5
 92 1173.66796875 92 1379.46679688 92 1375.72753906 c 5
460.640625 1375.72753906 m 5
 632.671875 1375.72753906 l 5
 632.671875 1379.46679688 632.671875 1173.66796875 632.671875 1179.28125 c 5
 460.640625 1179.28125 l 5
 460.640625 1173.66796875 460.640625 1379.46679688 460.640625 1375.72753906 c 5
EndSplineSet
EndChar

StartChar: NameMe.265
Encoding: 273 778 118
Width: 704
VWidth: 2457
Flags: HW
LayerCount: 2
Fore
SplineSet
84 1449.50390625 m 0
 84 1596.95996094 206.880859375 1695.26367188 354.3359375 1695.26367188 c 0
 501.791992188 1695.26367188 624.671875 1596.95996094 624.671875 1449.50390625 c 0
 624.671875 1302.04785156 501.791992188 1203.74414062 354.3359375 1203.74414062 c 0
 206.880859375 1203.74414062 84 1302.04785156 84 1449.50390625 c 0
354.3359375 1547.80761719 m 0
 280.607421875 1547.80761719 256.032226562 1498.65625 256.032226562 1449.50390625 c 0
 256.032226562 1400.3515625 280.607421875 1351.20019531 354.3359375 1351.20019531 c 0
 428.063476562 1351.20019531 452.640625 1400.3515625 452.640625 1449.50390625 c 0
 452.640625 1498.65625 428.063476562 1547.80761719 354.3359375 1547.80761719 c 0
EndSplineSet
EndChar

StartChar: degree
Encoding: 176 176 163
Width: 802
VWidth: 2457
Flags: HW
LayerCount: 2
Fore
SplineSet
80 1203.74414062 m 0
 80 1424.92871094 202.880859375 1547.80761719 399.48828125 1547.80761719 c 0
 596.095703125 1547.80761719 718.9765625 1424.92871094 718.9765625 1203.74414062 c 0
 718.9765625 982.559570312 596.095703125 859.680664062 399.48828125 859.680664062 c 0
 202.880859375 859.680664062 80 982.559570312 80 1203.74414062 c 0
399.48828125 1400.3515625 m 0
 325.759765625 1400.3515625 252.032226562 1326.62304688 252.032226562 1203.74414062 c 0
 252.032226562 1080.86328125 325.759765625 1007.13671875 399.48828125 1007.13671875 c 0
 473.215820312 1007.13671875 546.944335938 1080.86328125 546.944335938 1203.74414062 c 0
 546.944335938 1326.62304688 473.215820312 1400.3515625 399.48828125 1400.3515625 c 0
EndSplineSet
EndChar

StartChar: NameMe.281
Encoding: 281 774 165
Width: 696
VWidth: 2457
Flags: HW
LayerCount: 2
Fore
SplineSet
348.3359375 1203.74414062 m 0
 200.880859375 1203.74414062 78 1302.04785156 78 1449.50390625 c 1
 250.032226562 1449.50390625 l 1
 250.032226562 1400.3515625 274.607421875 1351.20019531 348.3359375 1351.20019531 c 0
 422.063476562 1351.20019531 446.640625 1400.3515625 446.640625 1449.50390625 c 1
 618.671875 1449.50390625 l 1
 618.671875 1302.04785156 495.791992188 1203.74414062 348.3359375 1203.74414062 c 0
EndSplineSet
EndChar

StartChar: NameMe.282
Encoding: 282 780 167
Width: 732
VWidth: 2457
Flags: HW
LayerCount: 2
Fore
SplineSet
676.400390625 1621.53613281 m 5
 455.215820312 1130.015625 l 5
 283.184570312 1130.015625 l 5
 62 1621.53613281 l 5
 184.880859375 1670.68847656 l 5
 369.200195312 1302.04785156 l 5
 553.51953125 1670.68847656 l 5
 676.400390625 1621.53613281 l 5
EndSplineSet
EndChar

StartChar: NameMe.283
Encoding: 283 779 189
Width: 819
VWidth: 2457
Flags: HW
LayerCount: 2
Fore
SplineSet
221.456054688 1228.31933594 m 1
 74 1228.31933594 l 1
 221.456054688 1572.38476562 l 1
 418.063476562 1572.38476562 l 1
 221.456054688 1228.31933594 l 1
565.51953125 1228.31933594 m 1
 418.063476562 1228.31933594 l 1
 565.51953125 1572.38476562 l 1
 762.12890625 1572.38476562 l 1
 565.51953125 1228.31933594 l 1
EndSplineSet
EndChar

StartChar: NameMe.284
Encoding: 284 775 190
Width: 362
VWidth: 2457
Flags: HW
LayerCount: 2
Fore
SplineSet
92 1375.72753906 m 1
 264.032226562 1375.72753906 l 1
 264.032226562 1379.46679688 264.032226562 1173.66796875 264.032226562 1179.28125 c 1
 92 1179.28125 l 1
 92 1173.66796875 92 1379.46679688 92 1375.72753906 c 1
EndSplineSet
EndChar

StartChar: NameMe.285
Encoding: 285 806 191
Width: 436
VWidth: 2457
Flags: HW
LayerCount: 2
Fore
SplineSet
130 -147.985351562 m 1
 302.032226562 -147.985351562 l 1
 302.032226562 -144.245117188 302.032226562 -350.043945312 302.032226562 -344.430664062 c 1
 130 -344.430664062 l 1
 130 -350.043945312 130 -144.245117188 130 -147.985351562 c 1
EndSplineSet
EndChar

StartChar: NameMe.286
Encoding: 286 808 199
Width: 468
VWidth: 2457
Flags: HW
LayerCount: 2
Fore
SplineSet
378.912109375 -257.815429688 m 1
 378.912109375 -405.271484375 l 2
 206.880859375 -429.84765625 84 -356.119140625 84 -233.240234375 c 0
 84 -110.359375 157.728515625 -49.6328125 231.456054688 -0.48046875 c 2
 354.3359375 -0.48046875 l 1
 157.728515625 -147.936523438 157.728515625 -331.543945312 378.912109375 -257.815429688 c 1
EndSplineSet
EndChar

StartChar: NameMe.287
Encoding: 287 807 200
Width: 429
Flags: HW
LayerCount: 2
Fore
SplineSet
94 -225.6796875 m 1
 278.3203125 -287.120117188 278.3203125 -123.280273438 114.479492188 -0.400390625 c 1
 216.879882812 -0.400390625 l 2
 278.3203125 -41.3603515625 339.759765625 -102.799804688 339.759765625 -205.200195312 c 0
 339.759765625 -307.599609375 237.360351562 -369.040039062 94 -348.559570312 c 2
 94 -225.6796875 l 1
EndSplineSet
EndChar

StartChar: Aogonek
Encoding: 161 260 201
Width: 1463
Flags: HW
LayerCount: 2
Fore
SplineSet
1372.296875 -258.165039062 m 1
 1372.296875 -405.62109375 l 2
 1200.265625 -430.197265625 1077.38476562 -356.46875 1077.38476562 -233.58984375 c 0
 1077.38476562 -110.708984375 1125.11328125 -49.982421875 1198.83984375 -0.830078125 c 2
 1370.72070312 -0.830078125 l 1
 1174.11328125 -148.286132812 1151.11328125 -331.893554688 1372.296875 -258.165039062 c 1
EndSplineSet
Refer: 0 65 N 1 0 0 1 -52 0 2
EndChar

